<svg width="196" height="73" viewBox="0 0 196 73" fill="none" xmlns="http://www.w3.org/2000/svg">
<path d="M82.9351 27.36C82.7484 27.0667 82.5751 26.6667 82.4151 26.16C82.2551 25.6533 82.1751 25.12 82.1751 24.56C82.1751 23.52 82.4017 22.7733 82.8551 22.32C83.3351 21.8667 83.9484 21.64 84.6951 21.64H102.135C102.322 21.9333 102.495 22.3333 102.655 22.84C102.815 23.3467 102.895 23.88 102.895 24.44C102.895 25.48 102.655 26.2267 102.175 26.68C101.722 27.1333 101.122 27.36 100.375 27.36H95.9351V45.84C95.6417 45.92 95.1751 46 94.5351 46.08C93.9217 46.16 93.3084 46.2 92.6951 46.2C92.0817 46.2 91.5351 46.1467 91.0551 46.04C90.6017 45.96 90.2151 45.8 89.8951 45.56C89.5751 45.32 89.3351 44.9867 89.1751 44.56C89.0151 44.1333 88.9351 43.5733 88.9351 42.88V27.36H82.9351ZM110.96 45.96C110.693 46.04 110.267 46.12 109.68 46.2C109.12 46.28 108.533 46.32 107.92 46.32C107.333 46.32 106.8 46.28 106.32 46.2C105.867 46.12 105.48 45.96 105.16 45.72C104.84 45.48 104.587 45.16 104.4 44.76C104.24 44.3333 104.16 43.7867 104.16 43.12V31.12C104.16 30.5067 104.267 29.9867 104.48 29.56C104.72 29.1067 105.053 28.7067 105.48 28.36C105.907 28.0133 106.427 27.7067 107.04 27.44C107.68 27.1467 108.36 26.8933 109.08 26.68C109.8 26.4667 110.547 26.3067 111.32 26.2C112.093 26.0667 112.867 26 113.64 26C114.92 26 115.933 26.2533 116.68 26.76C117.427 27.24 117.8 28.04 117.8 29.16C117.8 29.5333 117.747 29.9067 117.64 30.28C117.533 30.6267 117.4 30.9467 117.24 31.24C116.68 31.24 116.107 31.2667 115.52 31.32C114.933 31.3733 114.36 31.4533 113.8 31.56C113.24 31.6667 112.707 31.7867 112.2 31.92C111.72 32.0267 111.307 32.16 110.96 32.32V45.96ZM128.339 41.68C128.793 41.68 129.286 41.64 129.819 41.56C130.379 41.4533 130.793 41.32 131.059 41.16V37.96L128.179 38.2C127.433 38.2533 126.819 38.4133 126.339 38.68C125.859 38.9467 125.619 39.3467 125.619 39.88C125.619 40.4133 125.819 40.8533 126.219 41.2C126.646 41.52 127.353 41.68 128.339 41.68ZM128.019 25.96C129.459 25.96 130.766 26.1067 131.939 26.4C133.139 26.6933 134.153 27.1467 134.979 27.76C135.833 28.3467 136.486 29.1067 136.939 30.04C137.393 30.9467 137.619 32.0267 137.619 33.28V42.24C137.619 42.9333 137.419 43.5067 137.019 43.96C136.646 44.3867 136.193 44.76 135.659 45.08C133.926 46.12 131.486 46.64 128.339 46.64C126.926 46.64 125.646 46.5067 124.499 46.24C123.379 45.9733 122.406 45.5733 121.579 45.04C120.779 44.5067 120.153 43.8267 119.699 43C119.273 42.1733 119.059 41.2133 119.059 40.12C119.059 38.28 119.606 36.8667 120.699 35.88C121.793 34.8933 123.486 34.28 125.779 34.04L131.019 33.48V33.2C131.019 32.4267 130.673 31.88 129.979 31.56C129.313 31.2133 128.339 31.04 127.059 31.04C126.046 31.04 125.059 31.1467 124.099 31.36C123.139 31.5733 122.273 31.84 121.499 32.16C121.153 31.92 120.859 31.56 120.619 31.08C120.379 30.5733 120.259 30.0533 120.259 29.52C120.259 28.8267 120.419 28.28 120.739 27.88C121.086 27.4533 121.606 27.0933 122.299 26.8C123.073 26.5067 123.979 26.2933 125.019 26.16C126.086 26.0267 127.086 25.96 128.019 25.96ZM154.097 33.68C154.097 32.8533 153.857 32.2533 153.377 31.88C152.924 31.48 152.297 31.28 151.497 31.28C150.964 31.28 150.431 31.3467 149.897 31.48C149.391 31.6133 148.951 31.8133 148.577 32.08V45.96C148.311 46.04 147.884 46.12 147.297 46.2C146.737 46.28 146.151 46.32 145.537 46.32C144.951 46.32 144.417 46.28 143.937 46.2C143.484 46.12 143.097 45.96 142.777 45.72C142.457 45.48 142.204 45.16 142.017 44.76C141.857 44.3333 141.777 43.7867 141.777 43.12V31.12C141.777 30.4 141.924 29.8133 142.217 29.36C142.537 28.9067 142.964 28.4933 143.497 28.12C144.404 27.48 145.537 26.96 146.897 26.56C148.284 26.16 149.817 25.96 151.497 25.96C154.511 25.96 156.831 26.6267 158.457 27.96C160.084 29.2667 160.897 31.0933 160.897 33.44V45.96C160.631 46.04 160.204 46.12 159.617 46.2C159.057 46.28 158.471 46.32 157.857 46.32C157.271 46.32 156.737 46.28 156.257 46.2C155.804 46.12 155.417 45.96 155.097 45.72C154.777 45.48 154.524 45.16 154.337 44.76C154.177 44.3333 154.097 43.7867 154.097 43.12V33.68ZM181.498 40.2C181.498 42.2267 180.738 43.8133 179.218 44.96C177.698 46.1067 175.458 46.68 172.498 46.68C171.378 46.68 170.338 46.6 169.378 46.44C168.418 46.28 167.591 46.04 166.898 45.72C166.231 45.3733 165.698 44.9467 165.298 44.44C164.924 43.9333 164.738 43.3333 164.738 42.64C164.738 42 164.871 41.4667 165.138 41.04C165.404 40.5867 165.724 40.2133 166.098 39.92C166.871 40.3467 167.751 40.7333 168.738 41.08C169.751 41.4 170.911 41.56 172.218 41.56C173.044 41.56 173.671 41.44 174.098 41.2C174.551 40.96 174.778 40.64 174.778 40.24C174.778 39.8667 174.618 39.5733 174.298 39.36C173.978 39.1467 173.444 38.9733 172.698 38.84L171.498 38.6C169.178 38.1467 167.444 37.44 166.298 36.48C165.178 35.4933 164.618 34.0933 164.618 32.28C164.618 31.2933 164.831 30.4 165.258 29.6C165.684 28.8 166.284 28.1333 167.058 27.6C167.831 27.0667 168.751 26.6533 169.818 26.36C170.911 26.0667 172.111 25.92 173.418 25.92C174.404 25.92 175.324 26 176.178 26.16C177.058 26.2933 177.818 26.5067 178.458 26.8C179.098 27.0933 179.604 27.48 179.978 27.96C180.351 28.4133 180.538 28.96 180.538 29.6C180.538 30.2133 180.418 30.7467 180.178 31.2C179.964 31.6267 179.684 31.9867 179.338 32.28C179.124 32.1467 178.804 32.0133 178.378 31.88C177.951 31.72 177.484 31.5867 176.978 31.48C176.471 31.3467 175.951 31.24 175.418 31.16C174.911 31.08 174.444 31.04 174.018 31.04C173.138 31.04 172.458 31.1467 171.978 31.36C171.498 31.5467 171.258 31.8533 171.258 32.28C171.258 32.5733 171.391 32.8133 171.658 33C171.924 33.1867 172.431 33.36 173.178 33.52L174.418 33.8C176.978 34.3867 178.791 35.2 179.858 36.24C180.951 37.2533 181.498 38.5733 181.498 40.2Z" fill="white"/>
<path d="M82.9351 27.36L81.2478 28.4337L81.8372 29.36H82.9351V27.36ZM82.4151 26.16L80.5079 26.7623L80.5079 26.7623L82.4151 26.16ZM82.8551 22.32L81.4818 20.866L81.4611 20.8856L81.4409 20.9058L82.8551 22.32ZM102.135 21.64L103.822 20.5662L103.233 19.64H102.135V21.64ZM102.655 22.84L104.562 22.2377L104.562 22.2377L102.655 22.84ZM102.175 26.68L100.802 25.226L100.781 25.2456L100.761 25.2658L102.175 26.68ZM95.9351 27.36V25.36H93.9351V27.36H95.9351ZM95.9351 45.84L96.4613 47.7695L97.9351 47.3676V45.84H95.9351ZM94.5351 46.08L94.287 44.0954L94.2764 44.0968L94.5351 46.08ZM91.0551 46.04L91.4889 44.0876L91.446 44.0781L91.4026 44.0704L91.0551 46.04ZM89.8951 45.56L91.0951 43.96L89.8951 45.56ZM89.1751 44.56L87.3024 45.2622L87.3024 45.2622L89.1751 44.56ZM88.9351 27.36H90.9351V25.36H88.9351V27.36ZM84.6224 26.2862C84.5647 26.1955 84.4543 25.9759 84.3222 25.5577L80.5079 26.7623C80.6959 27.3574 80.9322 27.9378 81.2478 28.4337L84.6224 26.2862ZM84.3222 25.5577C84.227 25.2562 84.1751 24.9268 84.1751 24.56H80.1751C80.1751 25.3132 80.2831 26.0505 80.5079 26.7623L84.3222 25.5577ZM84.1751 24.56C84.1751 24.1757 84.2181 23.9352 84.2588 23.801C84.2972 23.6746 84.3204 23.6831 84.2693 23.7342L81.4409 20.9058C80.4365 21.9102 80.1751 23.3053 80.1751 24.56H84.1751ZM84.2283 23.774C84.2877 23.718 84.3869 23.64 84.6951 23.64V19.64C83.51 19.64 82.3825 20.0154 81.4818 20.866L84.2283 23.774ZM84.6951 23.64H102.135V19.64H84.6951V23.64ZM100.448 22.7138C100.506 22.8045 100.616 23.0241 100.748 23.4423L104.562 22.2377C104.374 21.6426 104.138 21.0622 103.822 20.5662L100.448 22.7138ZM100.748 23.4423C100.843 23.7438 100.895 24.0732 100.895 24.44H104.895C104.895 23.6868 104.787 22.9495 104.562 22.2377L100.748 23.4423ZM100.895 24.44C100.895 24.8157 100.851 25.0449 100.811 25.168C100.775 25.2807 100.755 25.2707 100.802 25.226L103.548 28.134C104.608 27.1331 104.895 25.721 104.895 24.44H100.895ZM100.761 25.2658C100.744 25.2822 100.686 25.36 100.375 25.36V29.36C101.558 29.36 102.699 28.9844 103.589 28.0942L100.761 25.2658ZM100.375 25.36H95.9351V29.36H100.375V25.36ZM93.9351 27.36V45.84H97.9351V27.36H93.9351ZM95.4088 43.9105C95.2608 43.9508 94.913 44.0172 94.287 44.0954L94.7831 48.0646C95.4372 47.9828 96.0227 47.8892 96.4613 47.7695L95.4088 43.9105ZM94.2764 44.0968C93.7481 44.1657 93.2212 44.2 92.6951 44.2V48.2C93.3956 48.2 94.0954 48.1543 94.7938 48.0632L94.2764 44.0968ZM92.6951 44.2C92.1935 44.2 91.7966 44.156 91.4889 44.0876L90.6212 47.9924C91.2736 48.1373 91.97 48.2 92.6951 48.2V44.2ZM91.4026 44.0704C91.2117 44.0367 91.1284 43.985 91.0951 43.96L88.6951 47.16C89.3017 47.615 89.9918 47.8833 90.7075 48.0096L91.4026 44.0704ZM91.0951 43.96C91.1015 43.9648 91.103 43.9681 91.0981 43.9614C91.0922 43.9532 91.0723 43.9231 91.0477 43.8578L87.3024 45.2622C87.5773 45.9952 88.0289 46.6604 88.6951 47.16L91.0951 43.96ZM91.0477 43.8578C91.0039 43.7409 90.9351 43.4456 90.9351 42.88H86.9351C86.9351 43.7011 87.0262 44.5258 87.3024 45.2622L91.0477 43.8578ZM90.9351 42.88V27.36H86.9351V42.88H90.9351ZM88.9351 25.36H82.9351V29.36H88.9351V25.36ZM110.96 45.96L111.535 47.8757L112.96 47.4481V45.96H110.96ZM109.68 46.2L109.41 44.2183L109.397 44.2201L109.68 46.2ZM106.32 46.2L105.973 48.1696L105.982 48.1712L105.991 48.1728L106.32 46.2ZM105.16 45.72L106.36 44.12L106.36 44.12L105.16 45.72ZM104.4 44.76L102.527 45.4622L102.555 45.5352L102.588 45.6058L104.4 44.76ZM104.48 29.56L102.713 28.6242L102.702 28.6448L102.691 28.6656L104.48 29.56ZM105.48 28.36L106.741 29.9122L106.741 29.9122L105.48 28.36ZM107.04 27.44L107.838 29.2741L107.856 29.2663L107.873 29.2581L107.04 27.44ZM109.08 26.68L109.648 28.5976L109.648 28.5976L109.08 26.68ZM111.32 26.2L111.593 28.1812L111.627 28.1766L111.66 28.1709L111.32 26.2ZM116.68 26.76L115.557 28.415L115.578 28.4289L115.599 28.4424L116.68 26.76ZM117.64 30.28L119.552 30.8682L119.558 30.8489L119.563 30.8294L117.64 30.28ZM117.24 31.24V33.24H118.427L118.996 32.1977L117.24 31.24ZM115.52 31.32L115.701 33.3118L115.701 33.3118L115.52 31.32ZM113.8 31.56L113.426 29.5953L113.426 29.5953L113.8 31.56ZM112.2 31.92L112.634 33.8724L112.672 33.864L112.709 33.8541L112.2 31.92ZM110.96 32.32L110.122 30.5041L108.96 31.0403V32.32H110.96ZM110.385 44.0443C110.277 44.0767 109.981 44.1404 109.41 44.2183L109.95 48.1817C110.552 48.0996 111.109 48.0033 111.535 47.8757L110.385 44.0443ZM109.397 44.2201C108.938 44.2857 108.447 44.32 107.92 44.32V48.32C108.62 48.32 109.302 48.2743 109.963 48.1799L109.397 44.2201ZM107.92 44.32C107.422 44.32 107.001 44.2859 106.649 44.2272L105.991 48.1728C106.599 48.2741 107.245 48.32 107.92 48.32V44.32ZM106.668 44.2304C106.477 44.1967 106.393 44.145 106.36 44.12L103.96 47.32C104.567 47.775 105.257 48.0433 105.973 48.1696L106.668 44.2304ZM106.36 44.12C106.33 44.0971 106.275 44.0478 106.212 43.9142L102.588 45.6058C102.899 46.2722 103.351 46.8629 103.96 47.32L106.36 44.12ZM106.273 44.0578C106.226 43.934 106.16 43.6479 106.16 43.12H102.16C102.16 43.9255 102.254 44.7327 102.527 45.4622L106.273 44.0578ZM106.16 43.12V31.12H102.16V43.12H106.16ZM106.16 31.12C106.16 30.7313 106.228 30.5356 106.269 30.4544L102.691 28.6656C102.305 29.4377 102.16 30.282 102.16 31.12H106.16ZM106.248 30.4958C106.353 30.2965 106.508 30.1018 106.741 29.9122L104.219 26.8078C103.599 27.3115 103.087 27.9168 102.713 28.6242L106.248 30.4958ZM106.741 29.9122C107 29.7018 107.356 29.4834 107.838 29.2741L106.243 25.6059C105.497 25.9299 104.813 26.3249 104.219 26.8078L106.741 29.9122ZM107.873 29.2581C108.422 29.0067 109.013 28.7858 109.648 28.5976L108.512 24.7624C107.707 25.0008 106.938 25.2866 106.207 25.6219L107.873 29.2581ZM109.648 28.5976C110.268 28.414 110.916 28.2747 111.593 28.1812L111.047 24.2188C110.178 24.3386 109.332 24.5194 108.512 24.7624L109.648 28.5976ZM111.66 28.1709C112.323 28.0567 112.982 28 113.64 28V24C112.751 24 111.864 24.0767 110.98 24.2291L111.66 28.1709ZM113.64 28C114.681 28 115.254 28.2091 115.557 28.415L117.803 25.105C116.613 24.2976 115.16 24 113.64 24V28ZM115.599 28.4424C115.656 28.4793 115.682 28.51 115.708 28.5658C115.742 28.6398 115.8 28.8163 115.8 29.16H119.8C119.8 27.5621 119.233 26.0233 117.762 25.0776L115.599 28.4424ZM115.8 29.16C115.8 29.3402 115.775 29.5287 115.717 29.7306L119.563 30.8294C119.719 30.2846 119.8 29.7265 119.8 29.16H115.8ZM115.729 29.6918C115.658 29.9212 115.575 30.1161 115.484 30.2823L118.996 32.1977C119.225 31.7772 119.409 31.3321 119.552 30.8682L115.729 29.6918ZM117.24 29.24C116.617 29.24 115.983 29.2697 115.339 29.3282L115.701 33.3118C116.231 33.2636 116.744 33.24 117.24 33.24V29.24ZM115.339 29.3282C114.69 29.3872 114.052 29.4761 113.426 29.5953L114.174 33.5247C114.668 33.4306 115.177 33.3594 115.701 33.3118L115.339 29.3282ZM113.426 29.5953C112.824 29.7099 112.246 29.8398 111.691 29.9858L112.709 33.8541C113.167 33.7335 113.656 33.6235 114.174 33.5247L113.426 29.5953ZM111.766 29.9676C111.185 30.0969 110.629 30.2701 110.122 30.5041L111.798 34.1359C111.985 34.0499 112.256 33.9564 112.634 33.8724L111.766 29.9676ZM108.96 32.32V45.96H112.96V32.32H108.96ZM129.819 41.56L130.116 43.5379L130.155 43.532L130.194 43.5247L129.819 41.56ZM131.059 41.16L132.088 42.875L133.059 42.2924V41.16H131.059ZM131.059 37.96H133.059V35.7864L130.893 35.9669L131.059 37.96ZM128.179 38.2L128.322 40.1949L128.334 40.1941L128.346 40.1931L128.179 38.2ZM126.339 38.68L125.368 36.9317L125.368 36.9317L126.339 38.68ZM126.219 41.2L124.91 42.7114L124.963 42.7576L125.019 42.8L126.219 41.2ZM131.939 26.4L131.454 28.3403L131.465 28.3428L131.939 26.4ZM134.979 27.76L133.788 29.3662L133.817 29.3877L133.846 29.4081L134.979 27.76ZM136.939 30.04L135.14 30.9138L135.145 30.9241L135.151 30.9344L136.939 30.04ZM137.019 43.96L135.52 42.6367L135.514 42.643L137.019 43.96ZM135.659 45.08L134.63 43.365L134.63 43.365L135.659 45.08ZM124.499 46.24L124.036 48.1856L124.046 48.188L124.499 46.24ZM121.579 45.04L120.47 46.7041L120.483 46.7124L120.495 46.7206L121.579 45.04ZM119.699 43L117.922 43.9173L117.934 43.9396L117.946 43.9617L119.699 43ZM120.699 35.88L119.36 34.3952L119.36 34.3952L120.699 35.88ZM125.779 34.04L125.988 36.0291L125.992 36.0287L125.779 34.04ZM131.019 33.48L131.232 35.4687L133.019 35.2776V33.48H131.019ZM129.979 31.56L129.057 33.3344L129.099 33.3562L129.141 33.3759L129.979 31.56ZM124.099 31.36L123.666 29.4076L123.666 29.4076L124.099 31.36ZM121.499 32.16L120.361 33.8044L121.257 34.4247L122.264 34.008L121.499 32.16ZM120.619 31.08L118.812 31.9362L118.821 31.9554L118.831 31.9744L120.619 31.08ZM120.739 27.88L119.187 26.6188L119.182 26.6247L119.178 26.6306L120.739 27.88ZM122.299 26.8L121.59 24.93L121.555 24.9434L121.52 24.9581L122.299 26.8ZM125.019 26.16L124.771 24.1754L124.765 24.1762L125.019 26.16ZM128.339 43.68C128.909 43.68 129.502 43.6299 130.116 43.5379L129.523 39.5821C129.07 39.6501 128.677 39.68 128.339 39.68V43.68ZM130.194 43.5247C130.825 43.4043 131.516 43.2182 132.088 42.875L130.03 39.445C130.068 39.4226 130.05 39.4398 129.935 39.4766C129.827 39.5115 129.668 39.553 129.445 39.5953L130.194 43.5247ZM133.059 41.16V37.96H129.059V41.16H133.059ZM130.893 35.9669L128.013 36.2069L128.346 40.1931L131.226 39.9531L130.893 35.9669ZM128.037 36.2051C127.099 36.2721 126.178 36.4817 125.368 36.9317L127.311 40.4283C127.461 40.345 127.766 40.2346 128.322 40.1949L128.037 36.2051ZM125.368 36.9317C124.876 37.205 124.415 37.6007 124.084 38.151C123.752 38.7043 123.619 39.3038 123.619 39.88H127.619C127.619 39.9229 127.606 40.0557 127.514 40.209C127.424 40.3593 127.323 40.4216 127.311 40.4283L125.368 36.9317ZM123.619 39.88C123.619 40.9883 124.067 41.9815 124.91 42.7114L127.529 39.6886C127.526 39.6857 127.56 39.7163 127.59 39.7824C127.62 39.8481 127.619 39.891 127.619 39.88H123.619ZM125.019 42.8C125.982 43.5217 127.239 43.68 128.339 43.68V39.68C127.945 39.68 127.678 39.6472 127.511 39.6094C127.34 39.5705 127.342 39.542 127.419 39.6L125.019 42.8ZM128.019 27.96C129.326 27.96 130.466 28.0933 131.454 28.3403L132.425 24.4597C131.066 24.12 129.593 23.96 128.019 23.96V27.96ZM131.465 28.3428C132.456 28.5852 133.214 28.9401 133.788 29.3662L136.171 26.1538C135.092 25.3532 133.823 24.8014 132.414 24.4572L131.465 28.3428ZM133.846 29.4081C134.414 29.7982 134.838 30.2912 135.14 30.9138L138.738 29.1662C138.134 27.9221 137.252 26.8951 136.113 26.1119L133.846 29.4081ZM135.151 30.9344C135.436 31.5055 135.619 32.2652 135.619 33.28H139.619C139.619 31.7881 139.349 30.3879 138.728 29.1456L135.151 30.9344ZM135.619 33.28V42.24H139.619V33.28H135.619ZM135.619 42.24C135.619 42.5222 135.55 42.6022 135.52 42.6368L138.519 45.2832C139.289 44.4111 139.619 43.3444 139.619 42.24H135.619ZM135.514 42.643C135.291 42.8986 135.003 43.1418 134.63 43.365L136.688 46.795C137.383 46.3782 138.002 45.8747 138.525 45.277L135.514 42.643ZM134.63 43.365C133.335 44.1421 131.308 44.64 128.339 44.64V48.64C131.664 48.64 134.517 48.0979 136.688 46.795L134.63 43.365ZM128.339 44.64C127.049 44.64 125.925 44.518 124.952 44.292L124.046 48.188C125.368 48.4953 126.803 48.64 128.339 48.64V44.64ZM124.963 44.2944C124.026 44.0715 123.271 43.7509 122.664 43.3594L120.495 46.7206C121.542 47.3958 122.732 47.8752 124.036 48.1856L124.963 44.2944ZM122.689 43.3759C122.152 43.0177 121.748 42.5766 121.453 42.0383L117.946 43.9617C118.557 45.0767 119.407 45.9956 120.47 46.7041L122.689 43.3759ZM121.477 42.0827C121.22 41.5854 121.059 40.95 121.059 40.12H117.059C117.059 41.4766 117.326 42.7612 117.922 43.9173L121.477 42.0827ZM121.059 40.12C121.059 38.6944 121.467 37.8813 122.039 37.3648L119.36 34.3952C117.745 35.852 117.059 37.8656 117.059 40.12H121.059ZM122.039 37.3648C122.686 36.7816 123.894 36.2483 125.988 36.0291L125.571 32.0509C123.079 32.3117 120.9 33.0051 119.36 34.3952L122.039 37.3648ZM125.992 36.0287L131.232 35.4687L130.807 31.4913L125.567 32.0513L125.992 36.0287ZM133.019 33.48V33.2H129.019V33.48H133.019ZM133.019 33.2C133.019 32.5087 132.862 31.7903 132.448 31.1389C132.034 30.4859 131.45 30.0359 130.818 29.7441L129.141 33.3759C129.176 33.3917 129.175 33.396 129.154 33.3789C129.132 33.3604 129.1 33.3277 129.07 33.2811C129.041 33.2346 129.026 33.1939 129.02 33.1705C129.014 33.1494 129.019 33.1558 129.019 33.2H133.019ZM130.902 29.7856C129.816 29.2208 128.464 29.04 127.059 29.04V33.04C128.215 33.04 128.81 33.2059 129.057 33.3344L130.902 29.7856ZM127.059 29.04C125.905 29.04 124.772 29.1617 123.666 29.4076L124.533 33.3124C125.347 33.1316 126.188 33.04 127.059 33.04V29.04ZM123.666 29.4076C122.612 29.6419 121.632 29.9408 120.735 30.312L122.264 34.008C122.914 33.7392 123.667 33.5048 124.533 33.3124L123.666 29.4076ZM122.638 30.5156C122.633 30.5122 122.538 30.4451 122.408 30.1856L118.831 31.9744C119.181 32.6749 119.673 33.3278 120.361 33.8044L122.638 30.5156ZM122.427 30.2238C122.307 29.9707 122.259 29.7421 122.259 29.52H118.259C118.259 30.3646 118.452 31.1759 118.812 31.9362L122.427 30.2238ZM122.259 29.52C122.259 29.121 122.351 29.0674 122.301 29.1294L119.178 26.6306C118.488 27.4926 118.259 28.5324 118.259 29.52H122.259ZM122.292 29.1412C122.37 29.0447 122.581 28.8526 123.079 28.6419L121.52 24.9581C120.631 25.3341 119.802 25.8619 119.187 26.6188L122.292 29.1412ZM123.009 28.67C123.602 28.4448 124.35 28.2622 125.274 28.1438L124.765 24.1762C123.609 24.3245 122.543 24.5685 121.59 24.93L123.009 28.67ZM125.268 28.1446C126.264 28.02 127.18 27.96 128.019 27.96V23.96C126.992 23.96 125.908 24.0333 124.771 24.1754L125.268 28.1446ZM153.377 31.88L152.054 33.3797L152.1 33.4207L152.149 33.4587L153.377 31.88ZM149.897 31.48L149.412 29.5397L149.4 29.5427L149.388 29.5459L149.897 31.48ZM148.577 32.08L147.415 30.4525L146.577 31.0508V32.08H148.577ZM148.577 45.96L149.152 47.8757L150.577 47.4481V45.96H148.577ZM147.297 46.2L147.027 44.2183L147.014 44.2201L147.297 46.2ZM143.937 46.2L143.59 48.1696L143.599 48.1712L143.608 48.1728L143.937 46.2ZM142.777 45.72L143.977 44.12L143.977 44.12L142.777 45.72ZM142.017 44.76L140.145 45.4622L140.172 45.5352L140.205 45.6058L142.017 44.76ZM142.217 29.36L140.583 28.2066L140.56 28.2396L140.538 28.2735L142.217 29.36ZM143.497 28.12L144.644 29.7585L144.651 29.7539L143.497 28.12ZM146.897 26.56L146.343 24.6383L146.333 24.6413L146.897 26.56ZM158.457 27.96L157.189 29.5068L157.197 29.513L157.205 29.5192L158.457 27.96ZM160.897 45.96L161.472 47.8757L162.897 47.4481V45.96H160.897ZM159.617 46.2L159.347 44.2183L159.334 44.2201L159.617 46.2ZM156.257 46.2L155.91 48.1696L155.919 48.1712L155.928 48.1728L156.257 46.2ZM155.097 45.72L153.897 47.32L155.097 45.72ZM154.337 44.76L152.465 45.4622L152.492 45.5352L152.525 45.6058L154.337 44.76ZM156.097 33.68C156.097 32.4735 155.733 31.1787 154.605 30.3013L152.149 33.4587C152.126 33.4407 152.103 33.4174 152.084 33.3919C152.066 33.367 152.06 33.351 152.06 33.3528C152.063 33.3607 152.097 33.4531 152.097 33.68H156.097ZM154.701 30.3803C153.777 29.5657 152.624 29.28 151.497 29.28V33.28C151.734 33.28 151.88 33.3099 151.959 33.3353C152.032 33.3586 152.053 33.3786 152.054 33.3797L154.701 30.3803ZM151.497 29.28C150.795 29.28 150.099 29.3679 149.412 29.5397L150.382 33.4203C150.762 33.3254 151.132 33.28 151.497 33.28V29.28ZM149.388 29.5459C148.68 29.7323 148.011 30.0263 147.415 30.4525L149.74 33.7075C149.89 33.6003 150.101 33.4944 150.406 33.4141L149.388 29.5459ZM146.577 32.08V45.96H150.577V32.08H146.577ZM148.003 44.0443C147.895 44.0767 147.599 44.1404 147.027 44.2183L147.567 48.1817C148.169 48.0996 148.727 48.0033 149.152 47.8757L148.003 44.0443ZM147.014 44.2201C146.556 44.2857 146.064 44.32 145.537 44.32V48.32C146.237 48.32 146.919 48.2743 147.58 48.1799L147.014 44.2201ZM145.537 44.32C145.039 44.32 144.618 44.2859 144.266 44.2272L143.608 48.1728C144.217 48.2741 144.862 48.32 145.537 48.32V44.32ZM144.285 44.2304C144.094 44.1967 144.011 44.145 143.977 44.12L141.577 47.32C142.184 47.775 142.874 48.0433 143.59 48.1696L144.285 44.2304ZM143.977 44.12C143.947 44.0971 143.892 44.0478 143.83 43.9142L140.205 45.6058C140.516 46.2722 140.968 46.8629 141.577 47.32L143.977 44.12ZM143.89 44.0578C143.844 43.934 143.777 43.6479 143.777 43.12H139.777C139.777 43.9255 139.871 44.7327 140.145 45.4622L143.89 44.0578ZM143.777 43.12V31.12H139.777V43.12H143.777ZM143.777 31.12C143.777 30.6599 143.872 30.4848 143.896 30.4465L140.538 28.2735C139.976 29.1419 139.777 30.1401 139.777 31.12H143.777ZM143.851 30.5134C144.017 30.2781 144.268 30.0219 144.644 29.7585L142.35 26.4815C141.66 26.9648 141.057 27.5352 140.583 28.2066L143.851 30.5134ZM144.651 29.7539C145.336 29.2701 146.257 28.8331 147.462 28.4787L146.333 24.6413C144.818 25.0869 143.472 25.6899 142.344 26.4861L144.651 29.7539ZM147.452 28.4816C148.631 28.1413 149.975 27.96 151.497 27.96V23.96C149.66 23.96 147.936 24.1787 146.343 24.6384L147.452 28.4816ZM151.497 27.96C154.244 27.96 156.047 28.5703 157.189 29.5068L159.725 26.4132C157.614 24.683 154.777 23.96 151.497 23.96V27.96ZM157.205 29.5192C158.296 30.3957 158.897 31.6139 158.897 33.44H162.897C162.897 30.5728 161.872 28.1376 159.71 26.4008L157.205 29.5192ZM158.897 33.44V45.96H162.897V33.44H158.897ZM160.323 44.0443C160.215 44.0767 159.919 44.1404 159.347 44.2183L159.887 48.1817C160.489 48.0996 161.047 48.0033 161.472 47.8757L160.323 44.0443ZM159.334 44.2201C158.876 44.2857 158.384 44.32 157.857 44.32V48.32C158.557 48.32 159.239 48.2743 159.9 48.1799L159.334 44.2201ZM157.857 44.32C157.359 44.32 156.938 44.2859 156.586 44.2272L155.928 48.1728C156.537 48.2741 157.182 48.32 157.857 48.32V44.32ZM156.605 44.2304C156.414 44.1967 156.331 44.145 156.297 44.12L153.897 47.32C154.504 47.775 155.194 48.0433 155.91 48.1696L156.605 44.2304ZM156.297 44.12C156.267 44.0971 156.212 44.0478 156.15 43.9142L152.525 45.6058C152.836 46.2722 153.288 46.8629 153.897 47.32L156.297 44.12ZM156.21 44.0578C156.164 43.934 156.097 43.6478 156.097 43.12H152.097C152.097 43.9255 152.191 44.7327 152.465 45.4622L156.21 44.0578ZM156.097 43.12V33.68H152.097V43.12H156.097ZM179.218 44.96L180.422 46.5566L180.422 46.5566L179.218 44.96ZM169.378 46.44L169.706 44.4672L169.378 46.44ZM166.898 45.72L165.975 47.4944L166.017 47.5162L166.059 47.5359L166.898 45.72ZM165.298 44.44L163.687 45.6264L163.707 45.6532L163.728 45.6793L165.298 44.44ZM165.138 41.04L166.834 42.1L166.848 42.0772L166.861 42.054L165.138 41.04ZM166.098 39.92L167.064 38.1688L165.904 37.5288L164.862 38.3474L166.098 39.92ZM168.738 41.08L168.075 42.9669L168.105 42.9775L168.135 42.9872L168.738 41.08ZM174.098 41.2L173.162 39.4324L173.139 39.4444L173.117 39.4568L174.098 41.2ZM172.698 38.84L172.305 40.8012L172.326 40.8052L172.346 40.8089L172.698 38.84ZM171.498 38.6L171.89 36.6388L171.881 36.6371L171.498 38.6ZM166.298 36.48L164.976 37.9807L164.994 37.9974L165.014 38.0135L166.298 36.48ZM165.258 29.6L163.493 28.6588L163.493 28.6588L165.258 29.6ZM167.058 27.6L168.193 29.2464L168.193 29.2464L167.058 27.6ZM169.818 26.36L169.299 24.4283L169.287 24.4316L169.818 26.36ZM176.178 26.16L175.809 28.1257L175.843 28.1322L175.878 28.1374L176.178 26.16ZM178.458 26.8L177.624 28.6181L177.624 28.6181L178.458 26.8ZM179.978 27.96L178.399 29.1879L178.416 29.2099L178.434 29.2314L179.978 27.96ZM180.178 31.2L178.41 30.2642L178.399 30.2848L178.389 30.3056L180.178 31.2ZM179.338 32.28L178.278 33.976L179.515 34.7495L180.629 33.8068L179.338 32.28ZM178.378 31.88L177.675 33.7527L177.728 33.7723L177.781 33.789L178.378 31.88ZM176.978 31.48L176.469 33.4141L176.517 33.4268L176.566 33.4371L176.978 31.48ZM175.418 31.16L175.106 33.1355L175.113 33.1367L175.121 33.1379L175.418 31.16ZM171.978 31.36L172.702 33.224L172.747 33.2068L172.79 33.1876L171.978 31.36ZM171.658 33L170.511 34.6385L170.511 34.6385L171.658 33ZM173.178 33.52L173.618 31.5691L173.607 31.5667L173.597 31.5644L173.178 33.52ZM174.418 33.8L174.864 31.8505L174.858 31.8491L174.418 33.8ZM179.858 36.24L178.461 37.672L178.479 37.6897L178.498 37.7069L179.858 36.24ZM179.498 40.2C179.498 41.6462 178.996 42.6221 178.013 43.3634L180.422 46.5566C182.479 45.0046 183.498 42.8072 183.498 40.2H179.498ZM178.013 43.3634C176.985 44.1388 175.249 44.68 172.498 44.68V48.68C175.666 48.68 178.41 48.0746 180.422 46.5566L178.013 43.3634ZM172.498 44.68C171.472 44.68 170.543 44.6066 169.706 44.4672L169.049 48.4128C170.132 48.5934 171.283 48.68 172.498 48.68V44.68ZM169.706 44.4672C168.877 44.3289 168.23 44.1321 167.736 43.9041L166.059 47.5359C166.952 47.9479 167.958 48.2311 169.049 48.4128L169.706 44.4672ZM167.82 43.9456C167.364 43.7082 167.065 43.4517 166.867 43.2007L163.728 45.6793C164.33 46.4416 165.098 47.0384 165.975 47.4944L167.82 43.9456ZM166.908 43.2536C166.813 43.1257 166.738 42.9521 166.738 42.64H162.738C162.738 43.7146 163.035 44.741 163.687 45.6264L166.908 43.2536ZM166.738 42.64C166.738 42.2739 166.813 42.1329 166.834 42.1L163.442 39.98C162.929 40.8004 162.738 41.7261 162.738 42.64H166.738ZM166.861 42.054C167.015 41.7926 167.176 41.6161 167.333 41.4926L164.862 38.3474C164.272 38.8106 163.793 39.3808 163.414 40.026L166.861 42.054ZM165.131 41.6712C166.018 42.1601 167.002 42.59 168.075 42.9669L169.401 39.1931C168.5 38.8767 167.724 38.5332 167.064 38.1688L165.131 41.6712ZM168.135 42.9872C169.382 43.3809 170.752 43.56 172.218 43.56V39.56C171.07 39.56 170.12 39.4191 169.34 39.1728L168.135 42.9872ZM172.218 43.56C173.18 43.56 174.212 43.4304 175.078 42.9432L173.117 39.4568C173.139 39.4444 173.093 39.4747 172.931 39.5057C172.772 39.5362 172.54 39.56 172.218 39.56V43.56ZM175.033 42.9676C175.924 42.4958 176.778 41.5977 176.778 40.24H172.778C172.778 40.0347 172.844 39.8091 172.976 39.624C173.09 39.4621 173.194 39.4155 173.162 39.4324L175.033 42.9676ZM176.778 40.24C176.778 39.1741 176.263 38.2667 175.407 37.6959L173.188 41.0241C173.12 40.9784 172.999 40.8756 172.902 40.6977C172.803 40.5174 172.778 40.348 172.778 40.24H176.778ZM175.407 37.6959C174.729 37.2439 173.854 37.0149 173.049 36.8711L172.346 40.8089C172.658 40.8646 172.884 40.9216 173.039 40.9721C173.204 41.0256 173.232 41.0536 173.188 41.0241L175.407 37.6959ZM173.09 36.8788L171.89 36.6388L171.105 40.5612L172.305 40.8012L173.09 36.8788ZM171.881 36.6371C169.719 36.2146 168.361 35.5989 167.581 34.9465L165.014 38.0135C166.528 39.2811 168.636 40.0787 171.114 40.5629L171.881 36.6371ZM167.62 34.9793C167.022 34.4529 166.618 33.6533 166.618 32.28H162.618C162.618 34.5334 163.333 36.5338 164.976 37.9807L167.62 34.9793ZM166.618 32.28C166.618 31.592 166.763 31.0264 167.022 30.5412L163.493 28.6588C162.898 29.7736 162.618 30.9947 162.618 32.28H166.618ZM167.022 30.5412C167.293 30.0335 167.673 29.6051 168.193 29.2464L165.922 25.9536C164.896 26.6616 164.075 27.5665 163.493 28.6588L167.022 30.5412ZM168.193 29.2464C168.752 28.8607 169.46 28.5326 170.348 28.2884L169.287 24.4316C168.042 24.774 166.909 25.2727 165.922 25.9536L168.193 29.2464ZM170.336 28.2917C171.237 28.05 172.26 27.92 173.418 27.92V23.92C171.962 23.92 170.585 24.0833 169.299 24.4283L170.336 28.2917ZM173.418 27.92C174.297 27.92 175.092 27.9914 175.809 28.1257L176.546 24.1943C175.556 24.0086 174.511 23.92 173.418 23.92V27.92ZM175.878 28.1374C176.62 28.2498 177.192 28.4199 177.624 28.6181L179.291 24.9819C178.443 24.5935 177.495 24.3368 176.477 24.1826L175.878 28.1374ZM177.624 28.6181C178.018 28.7987 178.252 28.999 178.399 29.1879L181.556 26.7321C180.956 25.961 180.177 25.388 179.291 24.9819L177.624 28.6181ZM178.434 29.2314C178.485 29.2937 178.538 29.3793 178.538 29.6H182.538C182.538 28.5407 182.217 27.533 181.521 26.6886L178.434 29.2314ZM178.538 29.6C178.538 29.9506 178.47 30.1505 178.41 30.2642L181.945 32.1358C182.365 31.3428 182.538 30.476 182.538 29.6H178.538ZM178.389 30.3056C178.29 30.5024 178.175 30.6436 178.046 30.7532L180.629 33.8068C181.193 33.3297 181.638 32.7509 181.966 32.0944L178.389 30.3056ZM180.398 30.584C179.969 30.3161 179.459 30.1224 178.974 29.971L177.781 33.789C177.952 33.8423 178.078 33.8886 178.168 33.9262C178.262 33.9653 178.291 33.9843 178.278 33.976L180.398 30.584ZM179.08 30.0073C178.547 29.8075 177.982 29.6476 177.39 29.5229L176.566 33.4371C176.987 33.5257 177.355 33.6325 177.675 33.7527L179.08 30.0073ZM177.487 29.5459C176.908 29.3936 176.317 29.2725 175.714 29.1821L175.121 33.1379C175.585 33.2075 176.034 33.2997 176.469 33.4141L177.487 29.5459ZM175.73 29.1845C175.14 29.0913 174.567 29.04 174.018 29.04V33.04C174.321 33.04 174.682 33.0687 175.106 33.1355L175.73 29.1845ZM174.018 29.04C173.022 29.04 172.017 29.1536 171.165 29.5324L172.79 33.1876C172.898 33.1397 173.253 33.04 174.018 33.04V29.04ZM171.253 29.496C170.783 29.6787 170.264 29.9838 169.863 30.4974C169.44 31.0367 169.258 31.6653 169.258 32.28H173.258C173.258 32.4681 173.195 32.7299 173.013 32.9626C172.851 33.1695 172.692 33.2279 172.702 33.224L171.253 29.496ZM169.258 32.28C169.258 33.3052 169.778 34.1254 170.511 34.6385L172.805 31.3615C172.874 31.4101 173 31.5188 173.106 31.7087C173.216 31.9061 173.258 32.1108 173.258 32.28H169.258ZM170.511 34.6385C171.141 35.0797 172.01 35.3152 172.759 35.4756L173.597 31.5644C173.271 31.4946 173.039 31.4305 172.885 31.3777C172.711 31.318 172.717 31.3005 172.805 31.3615L170.511 34.6385ZM172.737 35.4709L173.977 35.7509L174.858 31.8491L173.618 31.5691L172.737 35.4709ZM173.971 35.7495C176.41 36.3085 177.79 37.0173 178.461 37.672L181.254 34.808C179.792 33.3827 177.545 32.4648 174.864 31.8505L173.971 35.7495ZM178.498 37.7069C179.143 38.3049 179.498 39.0735 179.498 40.2H183.498C183.498 38.0732 182.759 36.2018 181.217 34.7731L178.498 37.7069Z" fill="black"/>
<path d="M12.6461 38.025C13.8501 38.025 14.7674 37.7527 15.3981 37.208C16.0574 36.6347 16.3871 35.7747 16.3871 34.628C16.3871 33.5387 16.0431 32.7073 15.3551 32.134C14.6958 31.532 13.7211 31.231 12.4311 31.231C11.9724 31.231 11.5854 31.2453 11.2701 31.274C10.9834 31.274 10.6824 31.3027 10.3671 31.36V38.025H12.6461ZM10.4101 51.828C10.0948 51.914 9.59309 52 8.90509 52.086C8.24576 52.172 7.58642 52.215 6.92709 52.215C6.26775 52.215 5.68009 52.1577 5.16409 52.043C4.67675 51.957 4.26109 51.785 3.91709 51.527C3.57309 51.269 3.31509 50.9107 3.14309 50.452C2.97109 49.9933 2.88509 49.3913 2.88509 48.646V28.393C2.88509 27.791 3.04275 27.3323 3.35809 27.017C3.70209 26.673 4.16075 26.4007 4.73409 26.2C5.70875 25.856 6.81242 25.6123 8.04509 25.469C9.30642 25.297 10.5678 25.211 11.8291 25.211C15.7851 25.211 18.8094 26.0567 20.9021 27.748C22.9948 29.4393 24.0411 31.7327 24.0411 34.628C24.0411 36.0327 23.8118 37.3083 23.3531 38.455C22.9231 39.573 22.2638 40.5477 21.3751 41.379C20.5151 42.1817 19.4114 42.8123 18.0641 43.271C16.7454 43.701 15.2118 43.916 13.4631 43.916H10.4101V51.828ZM48.3106 41.551C48.3106 43.3283 48.0382 44.9193 47.4936 46.324C46.9489 47.7 46.1749 48.861 45.1716 49.807C44.1969 50.753 43.0216 51.4697 41.6456 51.957C40.2696 52.4443 38.7359 52.688 37.0446 52.688C35.3532 52.688 33.8196 52.43 32.4436 51.914C31.0676 51.398 29.8779 50.667 28.8746 49.721C27.8999 48.7463 27.1402 47.571 26.5956 46.195C26.0509 44.819 25.7786 43.271 25.7786 41.551C25.7786 39.8597 26.0509 38.326 26.5956 36.95C27.1402 35.574 27.8999 34.413 28.8746 33.467C29.8779 32.4923 31.0676 31.747 32.4436 31.231C33.8196 30.715 35.3532 30.457 37.0446 30.457C38.7359 30.457 40.2696 30.7293 41.6456 31.274C43.0216 31.79 44.1969 32.5353 45.1716 33.51C46.1749 34.456 46.9489 35.617 47.4936 36.993C48.0382 38.369 48.3106 39.8883 48.3106 41.551ZM33.2606 41.551C33.2606 43.2997 33.5902 44.647 34.2496 45.593C34.9376 46.5103 35.8836 46.969 37.0876 46.969C38.2916 46.969 39.2089 46.496 39.8396 45.55C40.4989 44.604 40.8286 43.271 40.8286 41.551C40.8286 39.831 40.4989 38.5123 39.8396 37.595C39.1802 36.649 38.2486 36.176 37.0446 36.176C35.8406 36.176 34.9089 36.649 34.2496 37.595C33.5902 38.5123 33.2606 39.831 33.2606 41.551ZM59.1869 51.957C58.9002 52.043 58.4415 52.129 57.8109 52.215C57.2089 52.301 56.5782 52.344 55.9189 52.344C55.2882 52.344 54.7149 52.301 54.1989 52.215C53.7115 52.129 53.2959 51.957 52.9519 51.699C52.6079 51.441 52.3355 51.097 52.1349 50.667C51.9629 50.2083 51.8769 49.6207 51.8769 48.904V36.004C51.8769 35.3447 51.9915 34.7857 52.2209 34.327C52.4789 33.8397 52.8372 33.4097 53.2959 33.037C53.7545 32.6643 54.3135 32.3347 54.9729 32.048C55.6609 31.7327 56.3919 31.4603 57.1659 31.231C57.9399 31.0017 58.7425 30.8297 59.5739 30.715C60.4052 30.5717 61.2365 30.5 62.0679 30.5C63.4439 30.5 64.5332 30.7723 65.3359 31.317C66.1385 31.833 66.5399 32.693 66.5399 33.897C66.5399 34.2983 66.4825 34.6997 66.3679 35.101C66.2532 35.4737 66.1099 35.8177 65.9379 36.133C65.3359 36.133 64.7195 36.1617 64.0889 36.219C63.4582 36.2763 62.8419 36.3623 62.2399 36.477C61.6379 36.5917 61.0645 36.7207 60.5199 36.864C60.0039 36.9787 59.5595 37.122 59.1869 37.294V51.957ZM76.8656 44.819C76.8656 45.5643 77.0949 46.0947 77.5536 46.41C78.0409 46.7253 78.7146 46.883 79.5746 46.883C80.0046 46.883 80.4489 46.8543 80.9076 46.797C81.3662 46.711 81.7676 46.6107 82.1116 46.496C82.3696 46.8113 82.5846 47.1697 82.7566 47.571C82.9572 47.9437 83.0576 48.4023 83.0576 48.947C83.0576 50.0363 82.6419 50.925 81.8106 51.613C81.0079 52.301 79.5746 52.645 77.5106 52.645C74.9879 52.645 73.0386 52.0717 71.6626 50.925C70.3152 49.7783 69.6416 47.915 69.6416 45.335V26.931C69.9569 26.845 70.4012 26.759 70.9746 26.673C71.5766 26.5583 72.2072 26.501 72.8666 26.501C74.1279 26.501 75.1026 26.7303 75.7906 27.189C76.5072 27.619 76.8656 28.5507 76.8656 29.984V32.736H82.4986C82.6706 33.0513 82.8282 33.4527 82.9716 33.94C83.1436 34.3987 83.2296 34.9147 83.2296 35.488C83.2296 36.4913 83.0002 37.2223 82.5416 37.681C82.1116 38.111 81.5239 38.326 80.7786 38.326H76.8656V44.819Z" fill="black"/>
<path d="M15.3981 37.208L16.7053 38.7217L16.7104 38.7172L15.3981 37.208ZM15.3551 32.134L14.0066 33.611L14.04 33.6415L14.0747 33.6704L15.3551 32.134ZM11.2701 31.274V33.274H11.3608L11.4512 33.2658L11.2701 31.274ZM10.3671 31.36L10.0093 29.3923L8.36709 29.6908V31.36H10.3671ZM10.3671 38.025H8.36709V40.025H10.3671V38.025ZM10.4101 51.828L10.9363 53.7575L12.4101 53.3556V51.828H10.4101ZM8.90509 52.086L8.65702 50.1014L8.64641 50.1028L8.90509 52.086ZM5.16409 52.043L5.59795 50.0906L5.55499 50.0811L5.51166 50.0734L5.16409 52.043ZM3.91709 51.527L2.71709 53.127L2.71709 53.127L3.91709 51.527ZM3.14309 50.452L1.27043 51.1542L1.27043 51.1542L3.14309 50.452ZM3.35809 27.017L4.7723 28.4312L4.7723 28.4312L3.35809 27.017ZM4.73409 26.2L5.39479 28.0877L5.39973 28.086L4.73409 26.2ZM8.04509 25.469L8.27609 27.4556L8.29573 27.4533L8.31531 27.4507L8.04509 25.469ZM20.9021 27.748L19.6449 29.3035L20.9021 27.748ZM23.3531 38.455L21.4961 37.7122L21.4912 37.7246L21.4864 37.737L23.3531 38.455ZM21.3751 41.379L22.7397 42.8411L22.7414 42.8395L21.3751 41.379ZM18.0641 43.271L18.6841 45.1725L18.6964 45.1685L18.7086 45.1643L18.0641 43.271ZM10.4101 43.916V41.916H8.41009V43.916H10.4101ZM12.6461 40.025C14.1204 40.025 15.5792 39.6942 16.7053 38.7216L14.0908 35.6944C13.9557 35.8111 13.5797 36.025 12.6461 36.025V40.025ZM16.7104 38.7172C17.9333 37.6539 18.3871 36.1614 18.3871 34.628H14.3871C14.3871 35.388 14.1816 35.6155 14.0857 35.6988L16.7104 38.7172ZM18.3871 34.628C18.3871 33.0862 17.8777 31.6328 16.6355 30.5976L14.0747 33.6704C14.2085 33.7819 14.3871 33.9912 14.3871 34.628H18.3871ZM16.7036 30.657C15.5406 29.5951 14.0005 29.231 12.4311 29.231V33.231C13.4417 33.231 13.8509 33.4689 14.0066 33.611L16.7036 30.657ZM12.4311 29.231C11.9362 29.231 11.4846 29.2462 11.089 29.2822L11.4512 33.2658C11.6862 33.2444 12.0087 33.231 12.4311 33.231V29.231ZM11.2701 29.274C10.8504 29.274 10.4291 29.3159 10.0093 29.3923L10.7249 33.3277C10.9358 33.2894 11.1165 33.274 11.2701 33.274V29.274ZM8.36709 31.36V38.025H12.3671V31.36H8.36709ZM10.3671 40.025H12.6461V36.025H10.3671V40.025ZM9.88385 49.8985C9.71383 49.9448 9.33098 50.0172 8.65702 50.1014L9.15316 54.0706C9.8552 53.9828 10.4757 53.8832 10.9363 53.7575L9.88385 49.8985ZM8.64641 50.1028C8.07212 50.1777 7.49919 50.215 6.92709 50.215V54.215C7.67365 54.215 8.41939 54.1663 9.16377 54.0692L8.64641 50.1028ZM6.92709 50.215C6.37949 50.215 5.9416 50.167 5.59795 50.0906L4.73023 53.9954C5.41857 54.1483 6.15602 54.215 6.92709 54.215V50.215ZM5.51166 50.0734C5.28674 50.0337 5.17445 49.97 5.11709 49.927L2.71709 53.127C3.34772 53.6 4.06677 53.8803 4.81652 54.0126L5.51166 50.0734ZM5.11709 49.927C5.11149 49.9228 5.10251 49.9154 5.08866 49.8961C5.07373 49.8754 5.04627 49.8311 5.01575 49.7498L1.27043 51.1542C1.55727 51.9192 2.02694 52.6094 2.71709 53.127L5.11709 49.927ZM5.01575 49.7498C4.95993 49.6009 4.88509 49.2636 4.88509 48.646H0.885088C0.885088 49.5191 0.982244 50.3858 1.27043 51.1542L5.01575 49.7498ZM4.88509 48.646V28.393H0.885088V48.646H4.88509ZM4.88509 28.393C4.88509 28.262 4.90275 28.2243 4.89471 28.2477C4.8902 28.2608 4.87929 28.288 4.85771 28.3233C4.83582 28.3591 4.80715 28.3964 4.7723 28.4312L1.94388 25.6028C1.13716 26.4095 0.885088 27.4515 0.885088 28.393H4.88509ZM4.7723 28.4312C4.85779 28.3457 5.03628 28.2132 5.39479 28.0877L4.07339 24.3123C3.28523 24.5881 2.54638 25.0003 1.94387 25.6028L4.7723 28.4312ZM5.39973 28.086C6.20901 27.8003 7.16309 27.585 8.27609 27.4556L7.81409 23.4824C6.46176 23.6396 5.2085 23.9116 4.06845 24.314L5.39973 28.086ZM8.31531 27.4507C9.48792 27.2908 10.659 27.211 11.8291 27.211V23.211C10.4765 23.211 9.12492 23.3032 7.77486 23.4873L8.31531 27.4507ZM11.8291 27.211C15.5355 27.211 18.0418 28.0078 19.6449 29.3035L22.1593 26.1925C19.577 24.1055 16.0346 23.211 11.8291 23.211V27.211ZM19.6449 29.3035C21.2283 30.5832 22.0411 32.2841 22.0411 34.628H26.0411C26.0411 31.1812 24.7612 28.2955 22.1593 26.1925L19.6449 29.3035ZM22.0411 34.628C22.0411 35.8129 21.8482 36.832 21.4961 37.7122L25.21 39.1978C25.7753 37.7847 26.0411 36.2524 26.0411 34.628H22.0411ZM21.4864 37.737C21.1667 38.5683 20.6803 39.2903 20.0088 39.9185L22.7414 42.8395C23.8472 41.8051 24.6795 40.5777 25.2198 39.173L21.4864 37.737ZM20.0105 39.9169C19.396 40.4904 18.5542 40.9914 17.4196 41.3777L18.7086 45.1643C20.2687 44.6332 21.6342 43.8729 22.7397 42.8411L20.0105 39.9169ZM17.444 41.3695C16.3699 41.7198 15.0535 41.916 13.4631 41.916V45.916C15.37 45.916 17.1209 45.6822 18.6841 45.1725L17.444 41.3695ZM13.4631 41.916H10.4101V45.916H13.4631V41.916ZM8.41009 43.916V51.828H12.4101V43.916H8.41009ZM47.4936 46.324L49.3532 47.0601L49.3583 47.0471L47.4936 46.324ZM45.1716 49.807L43.7995 48.3518L43.789 48.3618L43.7786 48.3718L45.1716 49.807ZM41.6456 51.957L40.9779 50.0717L40.9779 50.0717L41.6456 51.957ZM32.4436 51.914L31.7413 53.7867L31.7413 53.7867L32.4436 51.914ZM28.8746 49.721L27.4603 51.1352L27.4811 51.156L27.5025 51.1762L28.8746 49.721ZM26.5956 46.195L24.7359 46.9311L24.7359 46.9311L26.5956 46.195ZM26.5956 36.95L24.7359 36.2139L24.7359 36.2139L26.5956 36.95ZM28.8746 33.467L30.2675 34.9022L30.2681 34.9016L28.8746 33.467ZM32.4436 31.231L33.1458 33.1037L33.1458 33.1037L32.4436 31.231ZM41.6456 31.274L40.9095 33.1336L40.9263 33.1403L40.9433 33.1467L41.6456 31.274ZM45.1716 33.51L43.7573 34.9242L43.7781 34.945L43.7995 34.9652L45.1716 33.51ZM47.4936 36.993L45.6339 37.7291L45.6339 37.7291L47.4936 36.993ZM34.2496 45.593L32.6088 46.7366L32.6287 46.7651L32.6496 46.793L34.2496 45.593ZM39.8396 45.55L38.1988 44.4064L38.1869 44.4234L38.1755 44.4406L39.8396 45.55ZM39.8396 37.595L38.1988 38.7386L38.2071 38.7505L38.2155 38.7623L39.8396 37.595ZM34.2496 37.595L35.8736 38.7623L35.8821 38.7505L35.8904 38.7386L34.2496 37.595ZM46.3106 41.551C46.3106 43.1246 46.0696 44.4643 45.6288 45.6009L49.3583 47.0471C50.0069 45.3744 50.3106 43.5321 50.3106 41.551H46.3106ZM45.6339 45.5879C45.1891 46.7117 44.5743 47.6213 43.7995 48.3518L46.5436 51.2622C47.7755 50.1007 48.7087 48.6883 49.3532 47.0601L45.6339 45.5879ZM43.7786 48.3718C43.0256 49.1027 42.1031 49.6732 40.9779 50.0717L42.3133 53.8423C43.94 53.2661 45.3682 52.4033 46.5645 51.2422L43.7786 48.3718ZM40.9779 50.0717C39.8473 50.4721 38.5438 50.688 37.0446 50.688V54.688C38.9279 54.688 40.6918 54.4165 42.3133 53.8423L40.9779 50.0717ZM37.0446 50.688C35.5574 50.688 34.2661 50.4615 33.1458 50.0413L31.7413 53.7867C33.373 54.3985 35.1491 54.688 37.0446 54.688V50.688ZM33.1458 50.0413C32.002 49.6124 31.0441 49.0178 30.2466 48.2658L27.5025 51.1762C28.7116 52.3162 30.1331 53.1836 31.7413 53.7867L33.1458 50.0413ZM30.2888 48.3068C29.5213 47.5393 28.9068 46.5998 28.4552 45.4589L24.7359 46.9311C25.3737 48.5422 26.2785 49.9534 27.4603 51.1352L30.2888 48.3068ZM28.4552 45.4589C28.017 44.352 27.7786 43.0593 27.7786 41.551H23.7786C23.7786 43.4827 24.0848 45.286 24.7359 46.9311L28.4552 45.4589ZM27.7786 41.551C27.7786 40.076 28.0155 38.7967 28.4552 37.6861L24.7359 36.2139C24.0862 37.8553 23.7786 39.6433 23.7786 41.551H27.7786ZM28.4552 37.6861C28.905 36.5497 29.5138 35.6337 30.2675 34.9022L27.4816 32.0318C26.286 33.1923 25.3754 34.5983 24.7359 36.2139L28.4552 37.6861ZM30.2681 34.9016C31.0637 34.1287 32.0147 33.5278 33.1458 33.1037L31.7413 29.3583C30.1204 29.9662 28.692 30.856 27.481 32.0324L30.2681 34.9016ZM33.1458 33.1037C34.2661 32.6835 35.5574 32.457 37.0446 32.457V28.457C35.1491 28.457 33.373 28.7465 31.7413 29.3583L33.1458 33.1037ZM37.0446 32.457C38.5195 32.457 39.7988 32.694 40.9095 33.1336L42.3817 29.4144C40.7403 28.7647 38.9522 28.457 37.0446 28.457V32.457ZM40.9433 33.1467C42.07 33.5692 42.9977 34.1646 43.7573 34.9242L46.5858 32.0958C45.3961 30.9061 43.9731 30.0108 42.3478 29.4013L40.9433 33.1467ZM43.7995 34.9652C44.5743 35.6957 45.1891 36.6053 45.6339 37.7291L49.3532 36.2569C48.7087 34.6287 47.7755 33.2163 46.5436 32.0548L43.7995 34.9652ZM45.6339 37.7291C46.0751 38.8436 46.3106 40.1094 46.3106 41.551H50.3106C50.3106 39.6673 50.0014 37.8944 49.3532 36.2569L45.6339 37.7291ZM31.2606 41.551C31.2606 43.5104 31.6233 45.3227 32.6088 46.7366L35.8904 44.4494C35.5571 43.9713 35.2606 43.089 35.2606 41.551H31.2606ZM32.6496 46.793C33.7368 48.2427 35.2908 48.969 37.0876 48.969V44.969C36.4763 44.969 36.1383 44.778 35.8496 44.393L32.6496 46.793ZM37.0876 48.969C38.9132 48.969 40.4767 48.1998 41.5037 46.6594L38.1755 44.4406C37.9411 44.7922 37.6699 44.969 37.0876 44.969V48.969ZM41.4804 46.6936C42.4626 45.2842 42.8286 43.49 42.8286 41.551H38.8286C38.8286 43.052 38.5351 43.9238 38.1988 44.4064L41.4804 46.6936ZM42.8286 41.551C42.8286 39.6179 42.465 37.821 41.4636 36.4277L38.2155 38.7623C38.5328 39.2037 38.8286 40.0441 38.8286 41.551H42.8286ZM41.4804 36.4514C40.4279 34.9413 38.8684 34.176 37.0446 34.176V38.176C37.6288 38.176 37.9326 38.3567 38.1988 38.7386L41.4804 36.4514ZM37.0446 34.176C35.2208 34.176 33.6613 34.9413 32.6088 36.4514L35.8904 38.7386C36.1565 38.3567 36.4604 38.176 37.0446 38.176V34.176ZM32.6255 36.4277C31.6241 37.821 31.2606 39.6179 31.2606 41.551H35.2606C35.2606 40.0441 35.5563 39.2037 35.8736 38.7623L32.6255 36.4277ZM59.1869 51.957L59.7616 53.8727L61.1869 53.4451V51.957H59.1869ZM57.8109 52.215L57.5406 50.2333L57.528 50.2351L57.8109 52.215ZM54.1989 52.215L53.8513 54.1846L53.8607 54.1862L53.8701 54.1878L54.1989 52.215ZM52.9519 51.699L54.1519 50.099L54.1519 50.099L52.9519 51.699ZM52.1349 50.667L50.2622 51.3692L50.2896 51.4422L50.3225 51.5128L52.1349 50.667ZM52.2209 34.327L50.4533 33.3912L50.4424 33.4118L50.432 33.4326L52.2209 34.327ZM53.2959 33.037L54.5571 34.5892L54.5571 34.5892L53.2959 33.037ZM54.9729 32.048L55.7703 33.8821L55.7883 33.8743L55.8062 33.8661L54.9729 32.048ZM57.1659 31.231L57.734 33.1486L57.734 33.1486L57.1659 31.231ZM59.5739 30.715L59.8471 32.6962L59.8805 32.6916L59.9137 32.6859L59.5739 30.715ZM65.3359 31.317L64.2129 32.972L64.2334 32.9859L64.2544 32.9994L65.3359 31.317ZM66.3679 35.101L68.2794 35.6892L68.2854 35.6699L68.2909 35.6504L66.3679 35.101ZM65.9379 36.133V38.133H67.1251L67.6937 37.0907L65.9379 36.133ZM64.0889 36.219L64.2699 38.2108L64.2699 38.2108L64.0889 36.219ZM62.2399 36.477L61.8656 34.5123L61.8656 34.5123L62.2399 36.477ZM60.5199 36.864L60.9537 38.8164L60.9915 38.808L61.0289 38.7981L60.5199 36.864ZM59.1869 37.294L58.3488 35.4781L57.1869 36.0143V37.294H59.1869ZM58.6122 50.0413C58.4842 50.0797 58.1563 50.1494 57.5406 50.2333L58.0811 54.1967C58.7268 54.1086 59.3162 54.0063 59.7616 53.8727L58.6122 50.0413ZM57.528 50.2351C57.0272 50.3067 56.4914 50.344 55.9189 50.344V54.344C56.665 54.344 57.3906 54.2953 58.0937 54.1949L57.528 50.2351ZM55.9189 50.344C55.3768 50.344 54.9156 50.3069 54.5277 50.2422L53.8701 54.1878C54.5141 54.2951 55.1996 54.344 55.9189 54.344V50.344ZM54.5464 50.2454C54.3215 50.2057 54.2092 50.142 54.1519 50.099L51.7519 53.299C52.3825 53.772 53.1015 54.0523 53.8513 54.1846L54.5464 50.2454ZM54.1519 50.099C54.0973 50.0581 54.0235 49.9848 53.9472 49.8212L50.3225 51.5128C50.6475 52.2092 51.1184 52.8239 51.7519 53.299L54.1519 50.099ZM54.0075 49.9648C53.9491 49.809 53.8769 49.4819 53.8769 48.904H49.8769C49.8769 49.7595 49.9766 50.6077 50.2622 51.3692L54.0075 49.9648ZM53.8769 48.904V36.004H49.8769V48.904H53.8769ZM53.8769 36.004C53.8769 35.5693 53.9531 35.3346 54.0097 35.2214L50.432 33.4326C50.0299 34.2367 49.8769 35.12 49.8769 36.004H53.8769ZM53.9884 35.2628C54.1119 35.0295 54.2917 34.8048 54.5571 34.5892L52.0347 31.4848C51.3827 32.0145 50.8458 32.6498 50.4533 33.3912L53.9884 35.2628ZM54.5571 34.5892C54.8481 34.3528 55.243 34.1114 55.7703 33.8821L54.1754 30.2139C53.384 30.5579 52.661 30.9759 52.0347 31.4848L54.5571 34.5892ZM55.8062 33.8661C56.4028 33.5927 57.0447 33.3528 57.734 33.1486L56.5977 29.3134C55.739 29.5678 54.9189 29.8726 54.1396 30.2299L55.8062 33.8661ZM57.734 33.1486C58.4078 32.949 59.1116 32.7977 59.8471 32.6962L59.3006 28.7338C58.3734 28.8616 57.472 29.0544 56.5977 29.3134L57.734 33.1486ZM59.9137 32.6859C60.6344 32.5617 61.3521 32.5 62.0679 32.5V28.5C61.121 28.5 60.176 28.5817 59.2341 28.7441L59.9137 32.6859ZM62.0679 32.5C63.2044 32.5 63.8535 32.7281 64.2129 32.972L66.4589 29.662C65.2129 28.8166 63.6834 28.5 62.0679 28.5V32.5ZM64.2544 32.9994C64.3327 33.0497 64.5399 33.1709 64.5399 33.897H68.5399C68.5399 32.2151 67.9443 30.6163 66.4174 29.6346L64.2544 32.9994ZM64.5399 33.897C64.5399 34.1052 64.5105 34.3217 64.4448 34.5516L68.2909 35.6504C68.4546 35.0776 68.5399 34.4915 68.5399 33.897H64.5399ZM64.4563 34.5128C64.3777 34.7682 64.2847 34.9871 64.1821 35.1753L67.6937 37.0907C67.935 36.6482 68.1287 36.1791 68.2794 35.6892L64.4563 34.5128ZM65.9379 34.133C65.2724 34.133 64.5956 34.1647 63.9078 34.2272L64.2699 38.2108C64.8435 38.1586 65.3993 38.133 65.9379 38.133V34.133ZM63.9078 34.2272C63.2145 34.2902 62.5336 34.3851 61.8656 34.5123L62.6141 38.4417C63.1501 38.3396 63.7019 38.2624 64.2699 38.2108L63.9078 34.2272ZM61.8656 34.5123C61.2223 34.6349 60.6038 34.7738 60.0109 34.9298L61.0289 38.7981C61.5253 38.6675 62.0535 38.5485 62.6141 38.4417L61.8656 34.5123ZM60.086 34.9116C59.4683 35.0489 58.8817 35.2321 58.3488 35.4781L60.025 39.1099C60.2374 39.0119 60.5394 38.9084 60.9537 38.8164L60.086 34.9116ZM57.1869 37.294V51.957H61.1869V37.294H57.1869ZM77.5536 46.41L76.4205 48.0581L76.4436 48.0739L76.4671 48.0891L77.5536 46.41ZM80.9076 46.797L81.1557 48.7816L81.2162 48.774L81.2762 48.7627L80.9076 46.797ZM82.1116 46.496L83.6595 45.2295L82.7867 44.1628L81.4791 44.5986L82.1116 46.496ZM82.7566 47.571L80.9183 48.3588L80.9534 48.4407L80.9956 48.5192L82.7566 47.571ZM81.8106 51.613L80.5354 50.0722L80.5221 50.0832L80.509 50.0945L81.8106 51.613ZM71.6626 50.925L70.3663 52.4481L70.3742 52.4548L70.3822 52.4614L71.6626 50.925ZM69.6416 26.931L69.1153 25.0015L67.6416 25.4034V26.931H69.6416ZM70.9746 26.673L71.2713 28.6509L71.3102 28.645L71.3488 28.6377L70.9746 26.673ZM75.7906 27.189L74.6812 28.8531L74.7208 28.8795L74.7616 28.904L75.7906 27.189ZM76.8656 32.736H74.8656V34.736H76.8656V32.736ZM82.4986 32.736L84.2544 31.7783L83.6858 30.736H82.4986V32.736ZM82.9716 33.94L81.0528 34.5043L81.0734 34.5741L81.0989 34.6422L82.9716 33.94ZM76.8656 38.326V36.326H74.8656V38.326H76.8656ZM74.8656 44.819C74.8656 45.9773 75.244 47.2492 76.4205 48.0581L78.6866 44.7619C78.7258 44.7888 78.7671 44.8257 78.804 44.871C78.8405 44.9159 78.8622 44.9562 78.8733 44.9819C78.8935 45.0287 78.8656 44.9945 78.8656 44.819H74.8656ZM76.4671 48.0891C77.3987 48.692 78.5036 48.883 79.5746 48.883V44.883C78.9256 44.883 78.6831 44.7587 78.6401 44.7309L76.4671 48.0891ZM79.5746 48.883C80.0934 48.883 80.6208 48.8484 81.1557 48.7816L80.6595 44.8124C80.2771 44.8603 79.9157 44.883 79.5746 44.883V48.883ZM81.2762 48.7627C81.8003 48.6645 82.2934 48.5436 82.744 48.3934L81.4791 44.5986C81.2418 44.6777 80.9322 44.7575 80.539 44.8313L81.2762 48.7627ZM80.5637 47.7625C80.6947 47.9226 80.8149 48.1176 80.9183 48.3588L84.5949 46.7832C84.3543 46.2218 84.0444 45.7 83.6595 45.2295L80.5637 47.7625ZM80.9956 48.5192C81.0008 48.5287 81.0576 48.6409 81.0576 48.947H85.0576C85.0576 48.1637 84.9137 47.3586 84.5175 46.6228L80.9956 48.5192ZM81.0576 48.947C81.0576 49.447 80.9026 49.7683 80.5354 50.0722L83.0857 53.1538C84.3812 52.0817 85.0576 50.6257 85.0576 48.947H81.0576ZM80.509 50.0945C80.2835 50.2878 79.4882 50.645 77.5106 50.645V54.645C79.661 54.645 81.7323 54.3142 83.1122 53.1315L80.509 50.0945ZM77.5106 50.645C75.2673 50.645 73.8373 50.1339 72.9429 49.3886L70.3822 52.4614C72.2398 54.0095 74.7086 54.645 77.5106 54.645V50.645ZM72.9588 49.4019C72.2321 48.7834 71.6416 47.6043 71.6416 45.335H67.6416C67.6416 48.2257 68.3984 50.7732 70.3663 52.4481L72.9588 49.4019ZM71.6416 45.335V26.931H67.6416V45.335H71.6416ZM70.1678 28.8605C70.3713 28.805 70.726 28.7327 71.2713 28.6509L70.6779 24.6951C70.0765 24.7853 69.5425 24.885 69.1153 25.0015L70.1678 28.8605ZM71.3488 28.6377C71.8185 28.5482 72.3234 28.501 72.8666 28.501V24.501C72.0911 24.501 71.3346 24.5685 70.6004 24.7083L71.3488 28.6377ZM72.8666 28.501C73.9264 28.501 74.4523 28.7005 74.6812 28.8531L76.9 25.5249C75.7528 24.7601 74.3294 24.501 72.8666 24.501V28.501ZM74.7616 28.904C74.6668 28.8471 74.6789 28.7951 74.7301 28.9282C74.7917 29.0884 74.8656 29.4147 74.8656 29.984H78.8656C78.8656 28.3592 78.4754 26.4675 76.8196 25.474L74.7616 28.904ZM74.8656 29.984V32.736H78.8656V29.984H74.8656ZM76.8656 34.736H82.4986V30.736H76.8656V34.736ZM80.7428 33.6937C80.8251 33.8446 80.9346 34.1022 81.0528 34.5043L84.8903 33.3757C84.7219 32.8031 84.5161 32.2581 84.2544 31.7783L80.7428 33.6937ZM81.0989 34.6422C81.1737 34.8416 81.2296 35.1144 81.2296 35.488H85.2296C85.2296 34.7149 85.1135 33.9557 84.8442 33.2378L81.0989 34.6422ZM81.2296 35.488C81.2296 35.8457 81.1877 36.0676 81.1493 36.1901C81.1137 36.3035 81.0907 36.3034 81.1274 36.2668L83.9558 39.0952C84.951 38.1001 85.2296 36.7387 85.2296 35.488H81.2296ZM81.1274 36.2668C81.1241 36.27 81.1199 36.276 81.0912 36.2865C81.0551 36.2997 80.9605 36.326 80.7786 36.326V40.326C81.9271 40.326 83.0694 39.9816 83.9558 39.0952L81.1274 36.2668ZM80.7786 36.326H76.8656V40.326H80.7786V36.326ZM74.8656 38.326V44.819H78.8656V38.326H74.8656Z" fill="white"/>
</svg>
