<svg width="223" height="73" viewBox="0 0 223 73" fill="none" xmlns="http://www.w3.org/2000/svg">
<rect x="1.5" y="11.5" width="220" height="51" rx="10.5" fill="#64A8E6" stroke="#315B80" stroke-width="3"/>
<path d="M102.935 27.36C102.748 27.0667 102.575 26.6667 102.415 26.16C102.255 25.6533 102.175 25.12 102.175 24.56C102.175 23.52 102.402 22.7733 102.855 22.32C103.335 21.8667 103.948 21.64 104.695 21.64H122.135C122.322 21.9333 122.495 22.3333 122.655 22.84C122.815 23.3467 122.895 23.88 122.895 24.44C122.895 25.48 122.655 26.2267 122.175 26.68C121.722 27.1333 121.122 27.36 120.375 27.36H115.935V45.84C115.642 45.92 115.175 46 114.535 46.08C113.922 46.16 113.308 46.2 112.695 46.2C112.082 46.2 111.535 46.1467 111.055 46.04C110.602 45.96 110.215 45.8 109.895 45.56C109.575 45.32 109.335 44.9867 109.175 44.56C109.015 44.1333 108.935 43.5733 108.935 42.88V27.36H102.935ZM130.96 45.96C130.693 46.04 130.267 46.12 129.68 46.2C129.12 46.28 128.533 46.32 127.92 46.32C127.333 46.32 126.8 46.28 126.32 46.2C125.867 46.12 125.48 45.96 125.16 45.72C124.84 45.48 124.587 45.16 124.4 44.76C124.24 44.3333 124.16 43.7867 124.16 43.12V31.12C124.16 30.5067 124.267 29.9867 124.48 29.56C124.72 29.1067 125.053 28.7067 125.48 28.36C125.907 28.0133 126.427 27.7067 127.04 27.44C127.68 27.1467 128.36 26.8933 129.08 26.68C129.8 26.4667 130.547 26.3067 131.32 26.2C132.093 26.0667 132.867 26 133.64 26C134.92 26 135.933 26.2533 136.68 26.76C137.427 27.24 137.8 28.04 137.8 29.16C137.8 29.5333 137.747 29.9067 137.64 30.28C137.533 30.6267 137.4 30.9467 137.24 31.24C136.68 31.24 136.107 31.2667 135.52 31.32C134.933 31.3733 134.36 31.4533 133.8 31.56C133.24 31.6667 132.707 31.7867 132.2 31.92C131.72 32.0267 131.307 32.16 130.96 32.32V45.96ZM148.339 41.68C148.793 41.68 149.286 41.64 149.819 41.56C150.379 41.4533 150.793 41.32 151.059 41.16V37.96L148.179 38.2C147.433 38.2533 146.819 38.4133 146.339 38.68C145.859 38.9467 145.619 39.3467 145.619 39.88C145.619 40.4133 145.819 40.8533 146.219 41.2C146.646 41.52 147.353 41.68 148.339 41.68ZM148.019 25.96C149.459 25.96 150.766 26.1067 151.939 26.4C153.139 26.6933 154.153 27.1467 154.979 27.76C155.833 28.3467 156.486 29.1067 156.939 30.04C157.393 30.9467 157.619 32.0267 157.619 33.28V42.24C157.619 42.9333 157.419 43.5067 157.019 43.96C156.646 44.3867 156.193 44.76 155.659 45.08C153.926 46.12 151.486 46.64 148.339 46.64C146.926 46.64 145.646 46.5067 144.499 46.24C143.379 45.9733 142.406 45.5733 141.579 45.04C140.779 44.5067 140.153 43.8267 139.699 43C139.273 42.1733 139.059 41.2133 139.059 40.12C139.059 38.28 139.606 36.8667 140.699 35.88C141.793 34.8933 143.486 34.28 145.779 34.04L151.019 33.48V33.2C151.019 32.4267 150.673 31.88 149.979 31.56C149.313 31.2133 148.339 31.04 147.059 31.04C146.046 31.04 145.059 31.1467 144.099 31.36C143.139 31.5733 142.273 31.84 141.499 32.16C141.153 31.92 140.859 31.56 140.619 31.08C140.379 30.5733 140.259 30.0533 140.259 29.52C140.259 28.8267 140.419 28.28 140.739 27.88C141.086 27.4533 141.606 27.0933 142.299 26.8C143.073 26.5067 143.979 26.2933 145.019 26.16C146.086 26.0267 147.086 25.96 148.019 25.96ZM174.097 33.68C174.097 32.8533 173.857 32.2533 173.377 31.88C172.924 31.48 172.297 31.28 171.497 31.28C170.964 31.28 170.431 31.3467 169.897 31.48C169.391 31.6133 168.951 31.8133 168.577 32.08V45.96C168.311 46.04 167.884 46.12 167.297 46.2C166.737 46.28 166.151 46.32 165.537 46.32C164.951 46.32 164.417 46.28 163.937 46.2C163.484 46.12 163.097 45.96 162.777 45.72C162.457 45.48 162.204 45.16 162.017 44.76C161.857 44.3333 161.777 43.7867 161.777 43.12V31.12C161.777 30.4 161.924 29.8133 162.217 29.36C162.537 28.9067 162.964 28.4933 163.497 28.12C164.404 27.48 165.537 26.96 166.897 26.56C168.284 26.16 169.817 25.96 171.497 25.96C174.511 25.96 176.831 26.6267 178.457 27.96C180.084 29.2667 180.897 31.0933 180.897 33.44V45.96C180.631 46.04 180.204 46.12 179.617 46.2C179.057 46.28 178.471 46.32 177.857 46.32C177.271 46.32 176.737 46.28 176.257 46.2C175.804 46.12 175.417 45.96 175.097 45.72C174.777 45.48 174.524 45.16 174.337 44.76C174.177 44.3333 174.097 43.7867 174.097 43.12V33.68ZM201.498 40.2C201.498 42.2267 200.738 43.8133 199.218 44.96C197.698 46.1067 195.458 46.68 192.498 46.68C191.378 46.68 190.338 46.6 189.378 46.44C188.418 46.28 187.591 46.04 186.898 45.72C186.231 45.3733 185.698 44.9467 185.298 44.44C184.924 43.9333 184.738 43.3333 184.738 42.64C184.738 42 184.871 41.4667 185.138 41.04C185.404 40.5867 185.724 40.2133 186.098 39.92C186.871 40.3467 187.751 40.7333 188.738 41.08C189.751 41.4 190.911 41.56 192.218 41.56C193.044 41.56 193.671 41.44 194.098 41.2C194.551 40.96 194.778 40.64 194.778 40.24C194.778 39.8667 194.618 39.5733 194.298 39.36C193.978 39.1467 193.444 38.9733 192.698 38.84L191.498 38.6C189.178 38.1467 187.444 37.44 186.298 36.48C185.178 35.4933 184.618 34.0933 184.618 32.28C184.618 31.2933 184.831 30.4 185.258 29.6C185.684 28.8 186.284 28.1333 187.058 27.6C187.831 27.0667 188.751 26.6533 189.818 26.36C190.911 26.0667 192.111 25.92 193.418 25.92C194.404 25.92 195.324 26 196.178 26.16C197.058 26.2933 197.818 26.5067 198.458 26.8C199.098 27.0933 199.604 27.48 199.978 27.96C200.351 28.4133 200.538 28.96 200.538 29.6C200.538 30.2133 200.418 30.7467 200.178 31.2C199.964 31.6267 199.684 31.9867 199.338 32.28C199.124 32.1467 198.804 32.0133 198.378 31.88C197.951 31.72 197.484 31.5867 196.978 31.48C196.471 31.3467 195.951 31.24 195.418 31.16C194.911 31.08 194.444 31.04 194.018 31.04C193.138 31.04 192.458 31.1467 191.978 31.36C191.498 31.5467 191.258 31.8533 191.258 32.28C191.258 32.5733 191.391 32.8133 191.658 33C191.924 33.1867 192.431 33.36 193.178 33.52L194.418 33.8C196.978 34.3867 198.791 35.2 199.858 36.24C200.951 37.2533 201.498 38.5733 201.498 40.2Z" fill="white"/>
<path d="M102.935 27.36L101.248 28.4337L101.837 29.36H102.935V27.36ZM102.415 26.16L100.508 26.7623L100.508 26.7623L102.415 26.16ZM102.855 22.32L101.482 20.866L101.461 20.8856L101.441 20.9058L102.855 22.32ZM122.135 21.64L123.822 20.5662L123.233 19.64H122.135V21.64ZM122.655 22.84L124.562 22.2377L124.562 22.2377L122.655 22.84ZM122.175 26.68L120.802 25.226L120.781 25.2456L120.761 25.2658L122.175 26.68ZM115.935 27.36V25.36H113.935V27.36H115.935ZM115.935 45.84L116.461 47.7695L117.935 47.3676V45.84H115.935ZM114.535 46.08L114.287 44.0954L114.276 44.0968L114.535 46.08ZM111.055 46.04L111.489 44.0876L111.446 44.0781L111.403 44.0704L111.055 46.04ZM109.895 45.56L111.095 43.96L109.895 45.56ZM109.175 44.56L107.302 45.2622L107.302 45.2622L109.175 44.56ZM108.935 27.36H110.935V25.36H108.935V27.36ZM104.622 26.2862C104.565 26.1955 104.454 25.9759 104.322 25.5577L100.508 26.7623C100.696 27.3574 100.932 27.9378 101.248 28.4337L104.622 26.2862ZM104.322 25.5577C104.227 25.2562 104.175 24.9268 104.175 24.56H100.175C100.175 25.3132 100.283 26.0505 100.508 26.7623L104.322 25.5577ZM104.175 24.56C104.175 24.1757 104.218 23.9352 104.259 23.801C104.297 23.6746 104.32 23.6831 104.269 23.7342L101.441 20.9058C100.436 21.9102 100.175 23.3053 100.175 24.56H104.175ZM104.228 23.774C104.288 23.718 104.387 23.64 104.695 23.64V19.64C103.51 19.64 102.382 20.0154 101.482 20.866L104.228 23.774ZM104.695 23.64H122.135V19.64H104.695V23.64ZM120.448 22.7138C120.506 22.8045 120.616 23.0241 120.748 23.4423L124.562 22.2377C124.374 21.6426 124.138 21.0622 123.822 20.5662L120.448 22.7138ZM120.748 23.4423C120.843 23.7438 120.895 24.0732 120.895 24.44H124.895C124.895 23.6868 124.787 22.9495 124.562 22.2377L120.748 23.4423ZM120.895 24.44C120.895 24.8157 120.851 25.0449 120.811 25.168C120.775 25.2807 120.755 25.2707 120.802 25.226L123.548 28.134C124.608 27.1331 124.895 25.721 124.895 24.44H120.895ZM120.761 25.2658C120.744 25.2822 120.686 25.36 120.375 25.36V29.36C121.558 29.36 122.699 28.9844 123.589 28.0942L120.761 25.2658ZM120.375 25.36H115.935V29.36H120.375V25.36ZM113.935 27.36V45.84H117.935V27.36H113.935ZM115.409 43.9105C115.261 43.9508 114.913 44.0172 114.287 44.0954L114.783 48.0646C115.437 47.9828 116.023 47.8892 116.461 47.7695L115.409 43.9105ZM114.276 44.0968C113.748 44.1657 113.221 44.2 112.695 44.2V48.2C113.396 48.2 114.095 48.1543 114.794 48.0632L114.276 44.0968ZM112.695 44.2C112.193 44.2 111.797 44.156 111.489 44.0876L110.621 47.9924C111.274 48.1373 111.97 48.2 112.695 48.2V44.2ZM111.403 44.0704C111.212 44.0367 111.128 43.985 111.095 43.96L108.695 47.16C109.302 47.615 109.992 47.8833 110.708 48.0096L111.403 44.0704ZM111.095 43.96C111.101 43.9648 111.103 43.9681 111.098 43.9614C111.092 43.9532 111.072 43.9231 111.048 43.8578L107.302 45.2622C107.577 45.9952 108.029 46.6604 108.695 47.16L111.095 43.96ZM111.048 43.8578C111.004 43.7409 110.935 43.4456 110.935 42.88H106.935C106.935 43.7011 107.026 44.5258 107.302 45.2622L111.048 43.8578ZM110.935 42.88V27.36H106.935V42.88H110.935ZM108.935 25.36H102.935V29.36H108.935V25.36ZM130.96 45.96L131.535 47.8757L132.96 47.4481V45.96H130.96ZM129.68 46.2L129.41 44.2183L129.397 44.2201L129.68 46.2ZM126.32 46.2L125.973 48.1696L125.982 48.1712L125.991 48.1728L126.32 46.2ZM125.16 45.72L126.36 44.12L126.36 44.12L125.16 45.72ZM124.4 44.76L122.527 45.4622L122.555 45.5352L122.588 45.6058L124.4 44.76ZM124.48 29.56L122.713 28.6242L122.702 28.6448L122.691 28.6656L124.48 29.56ZM125.48 28.36L126.741 29.9122L126.741 29.9122L125.48 28.36ZM127.04 27.44L127.838 29.2741L127.856 29.2663L127.873 29.2581L127.04 27.44ZM129.08 26.68L129.648 28.5976L129.648 28.5976L129.08 26.68ZM131.32 26.2L131.593 28.1812L131.627 28.1766L131.66 28.1709L131.32 26.2ZM136.68 26.76L135.557 28.415L135.578 28.4289L135.599 28.4424L136.68 26.76ZM137.64 30.28L139.552 30.8682L139.558 30.8489L139.563 30.8294L137.64 30.28ZM137.24 31.24V33.24H138.427L138.996 32.1977L137.24 31.24ZM135.52 31.32L135.701 33.3118L135.701 33.3118L135.52 31.32ZM133.8 31.56L133.426 29.5953L133.426 29.5953L133.8 31.56ZM132.2 31.92L132.634 33.8724L132.672 33.864L132.709 33.8541L132.2 31.92ZM130.96 32.32L130.122 30.5041L128.96 31.0403V32.32H130.96ZM130.385 44.0443C130.277 44.0767 129.981 44.1404 129.41 44.2183L129.95 48.1817C130.552 48.0996 131.109 48.0033 131.535 47.8757L130.385 44.0443ZM129.397 44.2201C128.938 44.2857 128.447 44.32 127.92 44.32V48.32C128.62 48.32 129.302 48.2743 129.963 48.1799L129.397 44.2201ZM127.92 44.32C127.422 44.32 127.001 44.2859 126.649 44.2272L125.991 48.1728C126.599 48.2741 127.245 48.32 127.92 48.32V44.32ZM126.668 44.2304C126.477 44.1967 126.393 44.145 126.36 44.12L123.96 47.32C124.567 47.775 125.257 48.0433 125.973 48.1696L126.668 44.2304ZM126.36 44.12C126.33 44.0971 126.275 44.0478 126.212 43.9142L122.588 45.6058C122.899 46.2722 123.351 46.8629 123.96 47.32L126.36 44.12ZM126.273 44.0578C126.226 43.934 126.16 43.6479 126.16 43.12H122.16C122.16 43.9255 122.254 44.7327 122.527 45.4622L126.273 44.0578ZM126.16 43.12V31.12H122.16V43.12H126.16ZM126.16 31.12C126.16 30.7313 126.228 30.5356 126.269 30.4544L122.691 28.6656C122.305 29.4377 122.16 30.282 122.16 31.12H126.16ZM126.248 30.4958C126.353 30.2965 126.508 30.1018 126.741 29.9122L124.219 26.8078C123.599 27.3115 123.087 27.9168 122.713 28.6242L126.248 30.4958ZM126.741 29.9122C127 29.7018 127.356 29.4834 127.838 29.2741L126.243 25.6059C125.497 25.9299 124.813 26.3249 124.219 26.8078L126.741 29.9122ZM127.873 29.2581C128.422 29.0067 129.013 28.7858 129.648 28.5976L128.512 24.7624C127.707 25.0008 126.938 25.2866 126.207 25.6219L127.873 29.2581ZM129.648 28.5976C130.268 28.414 130.916 28.2747 131.593 28.1812L131.047 24.2188C130.178 24.3386 129.332 24.5194 128.512 24.7624L129.648 28.5976ZM131.66 28.1709C132.323 28.0567 132.982 28 133.64 28V24C132.751 24 131.864 24.0767 130.98 24.2291L131.66 28.1709ZM133.64 28C134.681 28 135.254 28.2091 135.557 28.415L137.803 25.105C136.613 24.2976 135.16 24 133.64 24V28ZM135.599 28.4424C135.656 28.4793 135.682 28.51 135.708 28.5658C135.742 28.6398 135.8 28.8163 135.8 29.16H139.8C139.8 27.5621 139.233 26.0233 137.762 25.0776L135.599 28.4424ZM135.8 29.16C135.8 29.3402 135.775 29.5287 135.717 29.7306L139.563 30.8294C139.719 30.2846 139.8 29.7265 139.8 29.16H135.8ZM135.729 29.6918C135.658 29.9212 135.575 30.1161 135.484 30.2823L138.996 32.1977C139.225 31.7772 139.409 31.3321 139.552 30.8682L135.729 29.6918ZM137.24 29.24C136.617 29.24 135.983 29.2697 135.339 29.3282L135.701 33.3118C136.231 33.2636 136.744 33.24 137.24 33.24V29.24ZM135.339 29.3282C134.69 29.3872 134.052 29.4761 133.426 29.5953L134.174 33.5247C134.668 33.4306 135.177 33.3594 135.701 33.3118L135.339 29.3282ZM133.426 29.5953C132.824 29.7099 132.246 29.8398 131.691 29.9858L132.709 33.8541C133.167 33.7335 133.656 33.6235 134.174 33.5247L133.426 29.5953ZM131.766 29.9676C131.185 30.0969 130.629 30.2701 130.122 30.5041L131.798 34.1359C131.985 34.0499 132.256 33.9564 132.634 33.8724L131.766 29.9676ZM128.96 32.32V45.96H132.96V32.32H128.96ZM149.819 41.56L150.116 43.5379L150.155 43.532L150.194 43.5247L149.819 41.56ZM151.059 41.16L152.088 42.875L153.059 42.2924V41.16H151.059ZM151.059 37.96H153.059V35.7864L150.893 35.9669L151.059 37.96ZM148.179 38.2L148.322 40.1949L148.334 40.1941L148.346 40.1931L148.179 38.2ZM146.339 38.68L145.368 36.9317L145.368 36.9317L146.339 38.68ZM146.219 41.2L144.91 42.7114L144.963 42.7576L145.019 42.8L146.219 41.2ZM151.939 26.4L151.454 28.3403L151.465 28.3428L151.939 26.4ZM154.979 27.76L153.788 29.3662L153.817 29.3877L153.846 29.4081L154.979 27.76ZM156.939 30.04L155.14 30.9138L155.145 30.9241L155.151 30.9344L156.939 30.04ZM157.019 43.96L155.52 42.6367L155.514 42.643L157.019 43.96ZM155.659 45.08L154.63 43.365L154.63 43.365L155.659 45.08ZM144.499 46.24L144.036 48.1856L144.046 48.188L144.499 46.24ZM141.579 45.04L140.47 46.7041L140.483 46.7124L140.495 46.7206L141.579 45.04ZM139.699 43L137.922 43.9173L137.934 43.9396L137.946 43.9617L139.699 43ZM140.699 35.88L139.36 34.3952L139.36 34.3952L140.699 35.88ZM145.779 34.04L145.988 36.0291L145.992 36.0287L145.779 34.04ZM151.019 33.48L151.232 35.4687L153.019 35.2776V33.48H151.019ZM149.979 31.56L149.057 33.3344L149.099 33.3562L149.141 33.3759L149.979 31.56ZM144.099 31.36L143.666 29.4076L143.666 29.4076L144.099 31.36ZM141.499 32.16L140.361 33.8044L141.257 34.4247L142.264 34.008L141.499 32.16ZM140.619 31.08L138.812 31.9362L138.821 31.9554L138.831 31.9744L140.619 31.08ZM140.739 27.88L139.187 26.6188L139.182 26.6247L139.178 26.6306L140.739 27.88ZM142.299 26.8L141.59 24.93L141.555 24.9434L141.52 24.9581L142.299 26.8ZM145.019 26.16L144.771 24.1754L144.765 24.1762L145.019 26.16ZM148.339 43.68C148.909 43.68 149.502 43.6299 150.116 43.5379L149.523 39.5821C149.07 39.6501 148.677 39.68 148.339 39.68V43.68ZM150.194 43.5247C150.825 43.4043 151.516 43.2182 152.088 42.875L150.03 39.445C150.068 39.4226 150.05 39.4398 149.935 39.4766C149.827 39.5115 149.668 39.553 149.445 39.5953L150.194 43.5247ZM153.059 41.16V37.96H149.059V41.16H153.059ZM150.893 35.9669L148.013 36.2069L148.346 40.1931L151.226 39.9531L150.893 35.9669ZM148.037 36.2051C147.099 36.2721 146.178 36.4817 145.368 36.9317L147.311 40.4283C147.461 40.345 147.766 40.2346 148.322 40.1949L148.037 36.2051ZM145.368 36.9317C144.876 37.205 144.415 37.6007 144.084 38.151C143.752 38.7043 143.619 39.3038 143.619 39.88H147.619C147.619 39.9229 147.606 40.0557 147.514 40.209C147.424 40.3593 147.323 40.4216 147.311 40.4283L145.368 36.9317ZM143.619 39.88C143.619 40.9883 144.067 41.9815 144.91 42.7114L147.529 39.6886C147.526 39.6857 147.56 39.7163 147.59 39.7824C147.62 39.8481 147.619 39.891 147.619 39.88H143.619ZM145.019 42.8C145.982 43.5217 147.239 43.68 148.339 43.68V39.68C147.945 39.68 147.678 39.6472 147.511 39.6094C147.34 39.5705 147.342 39.542 147.419 39.6L145.019 42.8ZM148.019 27.96C149.326 27.96 150.466 28.0933 151.454 28.3403L152.425 24.4597C151.066 24.12 149.593 23.96 148.019 23.96V27.96ZM151.465 28.3428C152.456 28.5852 153.214 28.9401 153.788 29.3662L156.171 26.1538C155.092 25.3532 153.823 24.8014 152.414 24.4572L151.465 28.3428ZM153.846 29.4081C154.414 29.7982 154.838 30.2912 155.14 30.9138L158.738 29.1662C158.134 27.9221 157.252 26.8951 156.113 26.1119L153.846 29.4081ZM155.151 30.9344C155.436 31.5055 155.619 32.2652 155.619 33.28H159.619C159.619 31.7881 159.349 30.3879 158.728 29.1456L155.151 30.9344ZM155.619 33.28V42.24H159.619V33.28H155.619ZM155.619 42.24C155.619 42.5222 155.55 42.6022 155.52 42.6368L158.519 45.2832C159.289 44.4111 159.619 43.3444 159.619 42.24H155.619ZM155.514 42.643C155.291 42.8986 155.003 43.1418 154.63 43.365L156.688 46.795C157.383 46.3782 158.002 45.8747 158.525 45.277L155.514 42.643ZM154.63 43.365C153.335 44.1421 151.308 44.64 148.339 44.64V48.64C151.664 48.64 154.517 48.0979 156.688 46.795L154.63 43.365ZM148.339 44.64C147.049 44.64 145.925 44.518 144.952 44.292L144.046 48.188C145.368 48.4953 146.803 48.64 148.339 48.64V44.64ZM144.963 44.2944C144.026 44.0715 143.271 43.7509 142.664 43.3594L140.495 46.7206C141.542 47.3958 142.732 47.8752 144.036 48.1856L144.963 44.2944ZM142.689 43.3759C142.152 43.0177 141.748 42.5766 141.453 42.0383L137.946 43.9617C138.557 45.0767 139.407 45.9956 140.47 46.7041L142.689 43.3759ZM141.477 42.0827C141.22 41.5854 141.059 40.95 141.059 40.12H137.059C137.059 41.4766 137.326 42.7612 137.922 43.9173L141.477 42.0827ZM141.059 40.12C141.059 38.6944 141.467 37.8813 142.039 37.3648L139.36 34.3952C137.745 35.852 137.059 37.8656 137.059 40.12H141.059ZM142.039 37.3648C142.686 36.7816 143.894 36.2483 145.988 36.0291L145.571 32.0509C143.079 32.3117 140.9 33.0051 139.36 34.3952L142.039 37.3648ZM145.992 36.0287L151.232 35.4687L150.807 31.4913L145.567 32.0513L145.992 36.0287ZM153.019 33.48V33.2H149.019V33.48H153.019ZM153.019 33.2C153.019 32.5087 152.862 31.7903 152.448 31.1389C152.034 30.4859 151.45 30.0359 150.818 29.7441L149.141 33.3759C149.176 33.3917 149.175 33.396 149.154 33.3789C149.132 33.3604 149.1 33.3277 149.07 33.2811C149.041 33.2346 149.026 33.1939 149.02 33.1705C149.014 33.1494 149.019 33.1558 149.019 33.2H153.019ZM150.902 29.7856C149.816 29.2208 148.464 29.04 147.059 29.04V33.04C148.215 33.04 148.81 33.2059 149.057 33.3344L150.902 29.7856ZM147.059 29.04C145.905 29.04 144.772 29.1617 143.666 29.4076L144.533 33.3124C145.347 33.1316 146.188 33.04 147.059 33.04V29.04ZM143.666 29.4076C142.612 29.6419 141.632 29.9408 140.735 30.312L142.264 34.008C142.914 33.7392 143.667 33.5048 144.533 33.3124L143.666 29.4076ZM142.638 30.5156C142.633 30.5122 142.538 30.4451 142.408 30.1856L138.831 31.9744C139.181 32.6749 139.673 33.3278 140.361 33.8044L142.638 30.5156ZM142.427 30.2238C142.307 29.9707 142.259 29.7421 142.259 29.52H138.259C138.259 30.3646 138.452 31.1759 138.812 31.9362L142.427 30.2238ZM142.259 29.52C142.259 29.121 142.351 29.0674 142.301 29.1294L139.178 26.6306C138.488 27.4926 138.259 28.5324 138.259 29.52H142.259ZM142.292 29.1412C142.37 29.0447 142.581 28.8526 143.079 28.6419L141.52 24.9581C140.631 25.3341 139.802 25.8619 139.187 26.6188L142.292 29.1412ZM143.009 28.67C143.602 28.4448 144.35 28.2622 145.274 28.1438L144.765 24.1762C143.609 24.3245 142.543 24.5685 141.59 24.93L143.009 28.67ZM145.268 28.1446C146.264 28.02 147.18 27.96 148.019 27.96V23.96C146.992 23.96 145.908 24.0333 144.771 24.1754L145.268 28.1446ZM173.377 31.88L172.054 33.3797L172.1 33.4207L172.149 33.4587L173.377 31.88ZM169.897 31.48L169.412 29.5397L169.4 29.5427L169.388 29.5459L169.897 31.48ZM168.577 32.08L167.415 30.4525L166.577 31.0508V32.08H168.577ZM168.577 45.96L169.152 47.8757L170.577 47.4481V45.96H168.577ZM167.297 46.2L167.027 44.2183L167.014 44.2201L167.297 46.2ZM163.937 46.2L163.59 48.1696L163.599 48.1712L163.608 48.1728L163.937 46.2ZM162.777 45.72L163.977 44.12L163.977 44.12L162.777 45.72ZM162.017 44.76L160.145 45.4622L160.172 45.5352L160.205 45.6058L162.017 44.76ZM162.217 29.36L160.583 28.2066L160.56 28.2396L160.538 28.2735L162.217 29.36ZM163.497 28.12L164.644 29.7585L164.651 29.7539L163.497 28.12ZM166.897 26.56L166.343 24.6383L166.333 24.6413L166.897 26.56ZM178.457 27.96L177.189 29.5068L177.197 29.513L177.205 29.5192L178.457 27.96ZM180.897 45.96L181.472 47.8757L182.897 47.4481V45.96H180.897ZM179.617 46.2L179.347 44.2183L179.334 44.2201L179.617 46.2ZM176.257 46.2L175.91 48.1696L175.919 48.1712L175.928 48.1728L176.257 46.2ZM175.097 45.72L173.897 47.32L175.097 45.72ZM174.337 44.76L172.465 45.4622L172.492 45.5352L172.525 45.6058L174.337 44.76ZM176.097 33.68C176.097 32.4735 175.733 31.1787 174.605 30.3013L172.149 33.4587C172.126 33.4407 172.103 33.4174 172.084 33.3919C172.066 33.367 172.06 33.351 172.06 33.3528C172.063 33.3607 172.097 33.4531 172.097 33.68H176.097ZM174.701 30.3803C173.777 29.5657 172.624 29.28 171.497 29.28V33.28C171.734 33.28 171.88 33.3099 171.959 33.3353C172.032 33.3586 172.053 33.3786 172.054 33.3797L174.701 30.3803ZM171.497 29.28C170.795 29.28 170.099 29.3679 169.412 29.5397L170.382 33.4203C170.762 33.3254 171.132 33.28 171.497 33.28V29.28ZM169.388 29.5459C168.68 29.7323 168.011 30.0263 167.415 30.4525L169.74 33.7075C169.89 33.6003 170.101 33.4944 170.406 33.4141L169.388 29.5459ZM166.577 32.08V45.96H170.577V32.08H166.577ZM168.003 44.0443C167.895 44.0767 167.599 44.1404 167.027 44.2183L167.567 48.1817C168.169 48.0996 168.727 48.0033 169.152 47.8757L168.003 44.0443ZM167.014 44.2201C166.556 44.2857 166.064 44.32 165.537 44.32V48.32C166.237 48.32 166.919 48.2743 167.58 48.1799L167.014 44.2201ZM165.537 44.32C165.039 44.32 164.618 44.2859 164.266 44.2272L163.608 48.1728C164.217 48.2741 164.862 48.32 165.537 48.32V44.32ZM164.285 44.2304C164.094 44.1967 164.011 44.145 163.977 44.12L161.577 47.32C162.184 47.775 162.874 48.0433 163.59 48.1696L164.285 44.2304ZM163.977 44.12C163.947 44.0971 163.892 44.0478 163.83 43.9142L160.205 45.6058C160.516 46.2722 160.968 46.8629 161.577 47.32L163.977 44.12ZM163.89 44.0578C163.844 43.934 163.777 43.6479 163.777 43.12H159.777C159.777 43.9255 159.871 44.7327 160.145 45.4622L163.89 44.0578ZM163.777 43.12V31.12H159.777V43.12H163.777ZM163.777 31.12C163.777 30.6599 163.872 30.4848 163.896 30.4465L160.538 28.2735C159.976 29.1419 159.777 30.1401 159.777 31.12H163.777ZM163.851 30.5134C164.017 30.2781 164.268 30.0219 164.644 29.7585L162.35 26.4815C161.66 26.9648 161.057 27.5352 160.583 28.2066L163.851 30.5134ZM164.651 29.7539C165.336 29.2701 166.257 28.8331 167.462 28.4787L166.333 24.6413C164.818 25.0869 163.472 25.6899 162.344 26.4861L164.651 29.7539ZM167.452 28.4816C168.631 28.1413 169.975 27.96 171.497 27.96V23.96C169.66 23.96 167.936 24.1787 166.343 24.6384L167.452 28.4816ZM171.497 27.96C174.244 27.96 176.047 28.5703 177.189 29.5068L179.725 26.4132C177.614 24.683 174.777 23.96 171.497 23.96V27.96ZM177.205 29.5192C178.296 30.3957 178.897 31.6139 178.897 33.44H182.897C182.897 30.5728 181.872 28.1376 179.71 26.4008L177.205 29.5192ZM178.897 33.44V45.96H182.897V33.44H178.897ZM180.323 44.0443C180.215 44.0767 179.919 44.1404 179.347 44.2183L179.887 48.1817C180.489 48.0996 181.047 48.0033 181.472 47.8757L180.323 44.0443ZM179.334 44.2201C178.876 44.2857 178.384 44.32 177.857 44.32V48.32C178.557 48.32 179.239 48.2743 179.9 48.1799L179.334 44.2201ZM177.857 44.32C177.359 44.32 176.938 44.2859 176.586 44.2272L175.928 48.1728C176.537 48.2741 177.182 48.32 177.857 48.32V44.32ZM176.605 44.2304C176.414 44.1967 176.331 44.145 176.297 44.12L173.897 47.32C174.504 47.775 175.194 48.0433 175.91 48.1696L176.605 44.2304ZM176.297 44.12C176.267 44.0971 176.212 44.0478 176.15 43.9142L172.525 45.6058C172.836 46.2722 173.288 46.8629 173.897 47.32L176.297 44.12ZM176.21 44.0578C176.164 43.934 176.097 43.6478 176.097 43.12H172.097C172.097 43.9255 172.191 44.7327 172.465 45.4622L176.21 44.0578ZM176.097 43.12V33.68H172.097V43.12H176.097ZM199.218 44.96L200.422 46.5566L200.422 46.5566L199.218 44.96ZM189.378 46.44L189.706 44.4672L189.378 46.44ZM186.898 45.72L185.975 47.4944L186.017 47.5162L186.059 47.5359L186.898 45.72ZM185.298 44.44L183.687 45.6264L183.707 45.6532L183.728 45.6793L185.298 44.44ZM185.138 41.04L186.834 42.1L186.848 42.0772L186.861 42.054L185.138 41.04ZM186.098 39.92L187.064 38.1688L185.904 37.5288L184.862 38.3474L186.098 39.92ZM188.738 41.08L188.075 42.9669L188.105 42.9775L188.135 42.9872L188.738 41.08ZM194.098 41.2L193.162 39.4324L193.139 39.4444L193.117 39.4568L194.098 41.2ZM192.698 38.84L192.305 40.8012L192.326 40.8052L192.346 40.8089L192.698 38.84ZM191.498 38.6L191.89 36.6388L191.881 36.6371L191.498 38.6ZM186.298 36.48L184.976 37.9807L184.994 37.9974L185.014 38.0135L186.298 36.48ZM185.258 29.6L183.493 28.6588L183.493 28.6588L185.258 29.6ZM187.058 27.6L188.193 29.2464L188.193 29.2464L187.058 27.6ZM189.818 26.36L189.299 24.4283L189.287 24.4316L189.818 26.36ZM196.178 26.16L195.809 28.1257L195.843 28.1322L195.878 28.1374L196.178 26.16ZM198.458 26.8L197.624 28.6181L197.624 28.6181L198.458 26.8ZM199.978 27.96L198.399 29.1879L198.416 29.2099L198.434 29.2314L199.978 27.96ZM200.178 31.2L198.41 30.2642L198.399 30.2848L198.389 30.3056L200.178 31.2ZM199.338 32.28L198.278 33.976L199.515 34.7495L200.629 33.8068L199.338 32.28ZM198.378 31.88L197.675 33.7527L197.728 33.7723L197.781 33.789L198.378 31.88ZM196.978 31.48L196.469 33.4141L196.517 33.4268L196.566 33.4371L196.978 31.48ZM195.418 31.16L195.106 33.1355L195.113 33.1367L195.121 33.1379L195.418 31.16ZM191.978 31.36L192.702 33.224L192.747 33.2068L192.79 33.1876L191.978 31.36ZM191.658 33L190.511 34.6385L190.511 34.6385L191.658 33ZM193.178 33.52L193.618 31.5691L193.607 31.5667L193.597 31.5644L193.178 33.52ZM194.418 33.8L194.864 31.8505L194.858 31.8491L194.418 33.8ZM199.858 36.24L198.461 37.672L198.479 37.6897L198.498 37.7069L199.858 36.24ZM199.498 40.2C199.498 41.6462 198.996 42.6221 198.013 43.3634L200.422 46.5566C202.479 45.0046 203.498 42.8072 203.498 40.2H199.498ZM198.013 43.3634C196.985 44.1388 195.249 44.68 192.498 44.68V48.68C195.666 48.68 198.41 48.0746 200.422 46.5566L198.013 43.3634ZM192.498 44.68C191.472 44.68 190.543 44.6066 189.706 44.4672L189.049 48.4128C190.132 48.5934 191.283 48.68 192.498 48.68V44.68ZM189.706 44.4672C188.877 44.3289 188.23 44.1321 187.736 43.9041L186.059 47.5359C186.952 47.9479 187.958 48.2311 189.049 48.4128L189.706 44.4672ZM187.82 43.9456C187.364 43.7082 187.065 43.4517 186.867 43.2007L183.728 45.6793C184.33 46.4416 185.098 47.0384 185.975 47.4944L187.82 43.9456ZM186.908 43.2536C186.813 43.1257 186.738 42.9521 186.738 42.64H182.738C182.738 43.7146 183.035 44.741 183.687 45.6264L186.908 43.2536ZM186.738 42.64C186.738 42.2739 186.813 42.1329 186.834 42.1L183.442 39.98C182.929 40.8004 182.738 41.7261 182.738 42.64H186.738ZM186.861 42.054C187.015 41.7926 187.176 41.6161 187.333 41.4926L184.862 38.3474C184.272 38.8106 183.793 39.3808 183.414 40.026L186.861 42.054ZM185.131 41.6712C186.018 42.1601 187.002 42.59 188.075 42.9669L189.401 39.1931C188.5 38.8767 187.724 38.5332 187.064 38.1688L185.131 41.6712ZM188.135 42.9872C189.382 43.3809 190.752 43.56 192.218 43.56V39.56C191.07 39.56 190.12 39.4191 189.34 39.1728L188.135 42.9872ZM192.218 43.56C193.18 43.56 194.212 43.4304 195.078 42.9432L193.117 39.4568C193.139 39.4444 193.093 39.4747 192.931 39.5057C192.772 39.5362 192.54 39.56 192.218 39.56V43.56ZM195.033 42.9676C195.924 42.4958 196.778 41.5977 196.778 40.24H192.778C192.778 40.0347 192.844 39.8091 192.976 39.624C193.09 39.4621 193.194 39.4155 193.162 39.4324L195.033 42.9676ZM196.778 40.24C196.778 39.1741 196.263 38.2667 195.407 37.6959L193.188 41.0241C193.12 40.9784 192.999 40.8756 192.902 40.6977C192.803 40.5174 192.778 40.348 192.778 40.24H196.778ZM195.407 37.6959C194.729 37.2439 193.854 37.0149 193.049 36.8711L192.346 40.8089C192.658 40.8646 192.884 40.9216 193.039 40.9721C193.204 41.0256 193.232 41.0536 193.188 41.0241L195.407 37.6959ZM193.09 36.8788L191.89 36.6388L191.105 40.5612L192.305 40.8012L193.09 36.8788ZM191.881 36.6371C189.719 36.2146 188.361 35.5989 187.581 34.9465L185.014 38.0135C186.528 39.2811 188.636 40.0787 191.114 40.5629L191.881 36.6371ZM187.62 34.9793C187.022 34.4529 186.618 33.6533 186.618 32.28H182.618C182.618 34.5334 183.333 36.5338 184.976 37.9807L187.62 34.9793ZM186.618 32.28C186.618 31.592 186.763 31.0264 187.022 30.5412L183.493 28.6588C182.898 29.7736 182.618 30.9947 182.618 32.28H186.618ZM187.022 30.5412C187.293 30.0335 187.673 29.6051 188.193 29.2464L185.922 25.9536C184.896 26.6616 184.075 27.5665 183.493 28.6588L187.022 30.5412ZM188.193 29.2464C188.752 28.8607 189.46 28.5326 190.348 28.2884L189.287 24.4316C188.042 24.774 186.909 25.2727 185.922 25.9536L188.193 29.2464ZM190.336 28.2917C191.237 28.05 192.26 27.92 193.418 27.92V23.92C191.962 23.92 190.585 24.0833 189.299 24.4283L190.336 28.2917ZM193.418 27.92C194.297 27.92 195.092 27.9914 195.809 28.1257L196.546 24.1943C195.556 24.0086 194.511 23.92 193.418 23.92V27.92ZM195.878 28.1374C196.62 28.2498 197.192 28.4199 197.624 28.6181L199.291 24.9819C198.443 24.5935 197.495 24.3368 196.477 24.1826L195.878 28.1374ZM197.624 28.6181C198.018 28.7987 198.252 28.999 198.399 29.1879L201.556 26.7321C200.956 25.961 200.177 25.388 199.291 24.9819L197.624 28.6181ZM198.434 29.2314C198.485 29.2937 198.538 29.3793 198.538 29.6H202.538C202.538 28.5407 202.217 27.533 201.521 26.6886L198.434 29.2314ZM198.538 29.6C198.538 29.9506 198.47 30.1505 198.41 30.2642L201.945 32.1358C202.365 31.3428 202.538 30.476 202.538 29.6H198.538ZM198.389 30.3056C198.29 30.5024 198.175 30.6436 198.046 30.7532L200.629 33.8068C201.193 33.3297 201.638 32.7509 201.966 32.0944L198.389 30.3056ZM200.398 30.584C199.969 30.3161 199.459 30.1224 198.974 29.971L197.781 33.789C197.952 33.8423 198.078 33.8886 198.168 33.9262C198.262 33.9653 198.291 33.9843 198.278 33.976L200.398 30.584ZM199.08 30.0073C198.547 29.8075 197.982 29.6476 197.39 29.5229L196.566 33.4371C196.987 33.5257 197.355 33.6325 197.675 33.7527L199.08 30.0073ZM197.487 29.5459C196.908 29.3936 196.317 29.2725 195.714 29.1821L195.121 33.1379C195.585 33.2075 196.034 33.2997 196.469 33.4141L197.487 29.5459ZM195.73 29.1845C195.14 29.0913 194.567 29.04 194.018 29.04V33.04C194.321 33.04 194.682 33.0687 195.106 33.1355L195.73 29.1845ZM194.018 29.04C193.022 29.04 192.017 29.1536 191.165 29.5324L192.79 33.1876C192.898 33.1397 193.253 33.04 194.018 33.04V29.04ZM191.253 29.496C190.783 29.6787 190.264 29.9838 189.863 30.4974C189.44 31.0367 189.258 31.6653 189.258 32.28H193.258C193.258 32.4681 193.195 32.7299 193.013 32.9626C192.851 33.1695 192.692 33.2279 192.702 33.224L191.253 29.496ZM189.258 32.28C189.258 33.3052 189.778 34.1254 190.511 34.6385L192.805 31.3615C192.874 31.4101 193 31.5188 193.106 31.7087C193.216 31.9061 193.258 32.1108 193.258 32.28H189.258ZM190.511 34.6385C191.141 35.0797 192.01 35.3152 192.759 35.4756L193.597 31.5644C193.271 31.4946 193.039 31.4305 192.885 31.3777C192.711 31.318 192.717 31.3005 192.805 31.3615L190.511 34.6385ZM192.737 35.4709L193.977 35.7509L194.858 31.8491L193.618 31.5691L192.737 35.4709ZM193.971 35.7495C196.41 36.3085 197.79 37.0173 198.461 37.672L201.254 34.808C199.792 33.3827 197.545 32.4648 194.864 31.8505L193.971 35.7495ZM198.498 37.7069C199.143 38.3049 199.498 39.0735 199.498 40.2H203.498C203.498 38.0732 202.759 36.2018 201.217 34.7731L198.498 37.7069Z" fill="black"/>
<path d="M32.6461 38.025C33.8501 38.025 34.7674 37.7527 35.3981 37.208C36.0574 36.6347 36.3871 35.7747 36.3871 34.628C36.3871 33.5387 36.0431 32.7073 35.3551 32.134C34.6958 31.532 33.7211 31.231 32.4311 31.231C31.9724 31.231 31.5854 31.2453 31.2701 31.274C30.9834 31.274 30.6824 31.3027 30.3671 31.36V38.025H32.6461ZM30.4101 51.828C30.0948 51.914 29.5931 52 28.9051 52.086C28.2458 52.172 27.5864 52.215 26.9271 52.215C26.2678 52.215 25.6801 52.1577 25.1641 52.043C24.6768 51.957 24.2611 51.785 23.9171 51.527C23.5731 51.269 23.3151 50.9107 23.1431 50.452C22.9711 49.9933 22.8851 49.3913 22.8851 48.646V28.393C22.8851 27.791 23.0428 27.3323 23.3581 27.017C23.7021 26.673 24.1608 26.4007 24.7341 26.2C25.7088 25.856 26.8124 25.6123 28.0451 25.469C29.3064 25.297 30.5678 25.211 31.8291 25.211C35.7851 25.211 38.8094 26.0567 40.9021 27.748C42.9948 29.4393 44.0411 31.7327 44.0411 34.628C44.0411 36.0327 43.8118 37.3083 43.3531 38.455C42.9231 39.573 42.2638 40.5477 41.3751 41.379C40.5151 42.1817 39.4114 42.8123 38.0641 43.271C36.7454 43.701 35.2118 43.916 33.4631 43.916H30.4101V51.828ZM68.3106 41.551C68.3106 43.3283 68.0382 44.9193 67.4936 46.324C66.9489 47.7 66.1749 48.861 65.1716 49.807C64.1969 50.753 63.0216 51.4697 61.6456 51.957C60.2696 52.4443 58.7359 52.688 57.0446 52.688C55.3532 52.688 53.8196 52.43 52.4436 51.914C51.0676 51.398 49.8779 50.667 48.8746 49.721C47.8999 48.7463 47.1402 47.571 46.5956 46.195C46.0509 44.819 45.7786 43.271 45.7786 41.551C45.7786 39.8597 46.0509 38.326 46.5956 36.95C47.1402 35.574 47.8999 34.413 48.8746 33.467C49.8779 32.4923 51.0676 31.747 52.4436 31.231C53.8196 30.715 55.3532 30.457 57.0446 30.457C58.7359 30.457 60.2696 30.7293 61.6456 31.274C63.0216 31.79 64.1969 32.5353 65.1716 33.51C66.1749 34.456 66.9489 35.617 67.4936 36.993C68.0382 38.369 68.3106 39.8883 68.3106 41.551ZM53.2606 41.551C53.2606 43.2997 53.5902 44.647 54.2496 45.593C54.9376 46.5103 55.8836 46.969 57.0876 46.969C58.2916 46.969 59.2089 46.496 59.8396 45.55C60.4989 44.604 60.8286 43.271 60.8286 41.551C60.8286 39.831 60.4989 38.5123 59.8396 37.595C59.1802 36.649 58.2486 36.176 57.0446 36.176C55.8406 36.176 54.9089 36.649 54.2496 37.595C53.5902 38.5123 53.2606 39.831 53.2606 41.551ZM79.1869 51.957C78.9002 52.043 78.4415 52.129 77.8109 52.215C77.2089 52.301 76.5782 52.344 75.9189 52.344C75.2882 52.344 74.7149 52.301 74.1989 52.215C73.7115 52.129 73.2959 51.957 72.9519 51.699C72.6079 51.441 72.3355 51.097 72.1349 50.667C71.9629 50.2083 71.8769 49.6207 71.8769 48.904V36.004C71.8769 35.3447 71.9915 34.7857 72.2209 34.327C72.4789 33.8397 72.8372 33.4097 73.2959 33.037C73.7545 32.6643 74.3135 32.3347 74.9729 32.048C75.6609 31.7327 76.3919 31.4603 77.1659 31.231C77.9399 31.0017 78.7425 30.8297 79.5739 30.715C80.4052 30.5717 81.2365 30.5 82.0679 30.5C83.4439 30.5 84.5332 30.7723 85.3359 31.317C86.1385 31.833 86.5399 32.693 86.5399 33.897C86.5399 34.2983 86.4825 34.6997 86.3679 35.101C86.2532 35.4737 86.1099 35.8177 85.9379 36.133C85.3359 36.133 84.7195 36.1617 84.0889 36.219C83.4582 36.2763 82.8419 36.3623 82.2399 36.477C81.6379 36.5917 81.0645 36.7207 80.5199 36.864C80.0039 36.9787 79.5595 37.122 79.1869 37.294V51.957ZM96.8656 44.819C96.8656 45.5643 97.0949 46.0947 97.5536 46.41C98.0409 46.7253 98.7146 46.883 99.5746 46.883C100.005 46.883 100.449 46.8543 100.908 46.797C101.366 46.711 101.768 46.6107 102.112 46.496C102.37 46.8113 102.585 47.1697 102.757 47.571C102.957 47.9437 103.058 48.4023 103.058 48.947C103.058 50.0363 102.642 50.925 101.811 51.613C101.008 52.301 99.5746 52.645 97.5106 52.645C94.9879 52.645 93.0386 52.0717 91.6626 50.925C90.3152 49.7783 89.6416 47.915 89.6416 45.335V26.931C89.9569 26.845 90.4012 26.759 90.9746 26.673C91.5766 26.5583 92.2072 26.501 92.8666 26.501C94.1279 26.501 95.1026 26.7303 95.7906 27.189C96.5072 27.619 96.8656 28.5507 96.8656 29.984V32.736H102.499C102.671 33.0513 102.828 33.4527 102.972 33.94C103.144 34.3987 103.23 34.9147 103.23 35.488C103.23 36.4913 103 37.2223 102.542 37.681C102.112 38.111 101.524 38.326 100.779 38.326H96.8656V44.819Z" fill="black"/>
<path d="M35.3981 37.208L36.7053 38.7217L36.7104 38.7172L35.3981 37.208ZM35.3551 32.134L34.0066 33.611L34.04 33.6415L34.0747 33.6704L35.3551 32.134ZM31.2701 31.274V33.274H31.3608L31.4512 33.2658L31.2701 31.274ZM30.3671 31.36L30.0093 29.3923L28.3671 29.6908V31.36H30.3671ZM30.3671 38.025H28.3671V40.025H30.3671V38.025ZM30.4101 51.828L30.9363 53.7575L32.4101 53.3556V51.828H30.4101ZM28.9051 52.086L28.657 50.1014L28.6464 50.1028L28.9051 52.086ZM25.1641 52.043L25.5979 50.0906L25.555 50.0811L25.5117 50.0734L25.1641 52.043ZM23.9171 51.527L22.7171 53.127L22.7171 53.127L23.9171 51.527ZM23.1431 50.452L21.2704 51.1542L21.2704 51.1542L23.1431 50.452ZM23.3581 27.017L24.7723 28.4312L24.7723 28.4312L23.3581 27.017ZM24.7341 26.2L25.3948 28.0877L25.3997 28.086L24.7341 26.2ZM28.0451 25.469L28.2761 27.4556L28.2957 27.4533L28.3153 27.4507L28.0451 25.469ZM40.9021 27.748L39.6449 29.3035L40.9021 27.748ZM43.3531 38.455L41.4961 37.7122L41.4912 37.7246L41.4864 37.737L43.3531 38.455ZM41.3751 41.379L42.7397 42.8411L42.7414 42.8395L41.3751 41.379ZM38.0641 43.271L38.6841 45.1725L38.6964 45.1685L38.7086 45.1643L38.0641 43.271ZM30.4101 43.916V41.916H28.4101V43.916H30.4101ZM32.6461 40.025C34.1204 40.025 35.5792 39.6942 36.7053 38.7216L34.0908 35.6944C33.9557 35.8111 33.5797 36.025 32.6461 36.025V40.025ZM36.7104 38.7172C37.9333 37.6539 38.3871 36.1614 38.3871 34.628H34.3871C34.3871 35.388 34.1816 35.6155 34.0857 35.6988L36.7104 38.7172ZM38.3871 34.628C38.3871 33.0862 37.8777 31.6328 36.6355 30.5976L34.0747 33.6704C34.2085 33.7819 34.3871 33.9912 34.3871 34.628H38.3871ZM36.7036 30.657C35.5406 29.5951 34.0005 29.231 32.4311 29.231V33.231C33.4417 33.231 33.8509 33.4689 34.0066 33.611L36.7036 30.657ZM32.4311 29.231C31.9362 29.231 31.4846 29.2462 31.089 29.2822L31.4512 33.2658C31.6862 33.2444 32.0087 33.231 32.4311 33.231V29.231ZM31.2701 29.274C30.8504 29.274 30.4291 29.3159 30.0093 29.3923L30.7249 33.3277C30.9358 33.2894 31.1165 33.274 31.2701 33.274V29.274ZM28.3671 31.36V38.025H32.3671V31.36H28.3671ZM30.3671 40.025H32.6461V36.025H30.3671V40.025ZM29.8839 49.8985C29.7138 49.9448 29.331 50.0172 28.657 50.1014L29.1532 54.0706C29.8552 53.9828 30.4757 53.8832 30.9363 53.7575L29.8839 49.8985ZM28.6464 50.1028C28.0721 50.1777 27.4992 50.215 26.9271 50.215V54.215C27.6737 54.215 28.4194 54.1663 29.1638 54.0692L28.6464 50.1028ZM26.9271 50.215C26.3795 50.215 25.9416 50.167 25.5979 50.0906L24.7302 53.9954C25.4186 54.1483 26.156 54.215 26.9271 54.215V50.215ZM25.5117 50.0734C25.2867 50.0337 25.1745 49.97 25.1171 49.927L22.7171 53.127C23.3477 53.6 24.0668 53.8803 24.8165 54.0126L25.5117 50.0734ZM25.1171 49.927C25.1115 49.9228 25.1025 49.9154 25.0887 49.8961C25.0737 49.8754 25.0463 49.8311 25.0157 49.7498L21.2704 51.1542C21.5573 51.9192 22.0269 52.6094 22.7171 53.127L25.1171 49.927ZM25.0157 49.7498C24.9599 49.6009 24.8851 49.2636 24.8851 48.646H20.8851C20.8851 49.5191 20.9822 50.3858 21.2704 51.1542L25.0157 49.7498ZM24.8851 48.646V28.393H20.8851V48.646H24.8851ZM24.8851 28.393C24.8851 28.262 24.9027 28.2243 24.8947 28.2477C24.8902 28.2608 24.8793 28.288 24.8577 28.3233C24.8358 28.3591 24.8071 28.3964 24.7723 28.4312L21.9439 25.6028C21.1372 26.4095 20.8851 27.4515 20.8851 28.393H24.8851ZM24.7723 28.4312C24.8578 28.3457 25.0363 28.2132 25.3948 28.0877L24.0734 24.3123C23.2852 24.5881 22.5464 25.0003 21.9439 25.6028L24.7723 28.4312ZM25.3997 28.086C26.209 27.8003 27.1631 27.585 28.2761 27.4556L27.8141 23.4824C26.4618 23.6396 25.2085 23.9116 24.0684 24.314L25.3997 28.086ZM28.3153 27.4507C29.4879 27.2908 30.659 27.211 31.8291 27.211V23.211C30.4765 23.211 29.1249 23.3032 27.7749 23.4873L28.3153 27.4507ZM31.8291 27.211C35.5355 27.211 38.0418 28.0078 39.6449 29.3035L42.1593 26.1925C39.577 24.1055 36.0346 23.211 31.8291 23.211V27.211ZM39.6449 29.3035C41.2283 30.5832 42.0411 32.2841 42.0411 34.628H46.0411C46.0411 31.1812 44.7612 28.2955 42.1593 26.1925L39.6449 29.3035ZM42.0411 34.628C42.0411 35.8129 41.8482 36.832 41.4961 37.7122L45.21 39.1978C45.7753 37.7847 46.0411 36.2524 46.0411 34.628H42.0411ZM41.4864 37.737C41.1667 38.5683 40.6803 39.2903 40.0088 39.9185L42.7414 42.8395C43.8472 41.8051 44.6795 40.5777 45.2198 39.173L41.4864 37.737ZM40.0105 39.9169C39.396 40.4904 38.5542 40.9914 37.4196 41.3777L38.7086 45.1643C40.2687 44.6332 41.6342 43.8729 42.7397 42.8411L40.0105 39.9169ZM37.444 41.3695C36.3699 41.7198 35.0535 41.916 33.4631 41.916V45.916C35.37 45.916 37.1209 45.6822 38.6841 45.1725L37.444 41.3695ZM33.4631 41.916H30.4101V45.916H33.4631V41.916ZM28.4101 43.916V51.828H32.4101V43.916H28.4101ZM67.4936 46.324L69.3532 47.0601L69.3583 47.0471L67.4936 46.324ZM65.1716 49.807L63.7995 48.3518L63.789 48.3618L63.7786 48.3718L65.1716 49.807ZM61.6456 51.957L60.9779 50.0717L60.9779 50.0717L61.6456 51.957ZM52.4436 51.914L51.7413 53.7867L51.7413 53.7867L52.4436 51.914ZM48.8746 49.721L47.4603 51.1352L47.4811 51.156L47.5025 51.1762L48.8746 49.721ZM46.5956 46.195L44.7359 46.9311L44.7359 46.9311L46.5956 46.195ZM46.5956 36.95L44.7359 36.2139L44.7359 36.2139L46.5956 36.95ZM48.8746 33.467L50.2675 34.9022L50.2681 34.9016L48.8746 33.467ZM52.4436 31.231L53.1458 33.1037L53.1458 33.1037L52.4436 31.231ZM61.6456 31.274L60.9095 33.1336L60.9263 33.1403L60.9433 33.1467L61.6456 31.274ZM65.1716 33.51L63.7573 34.9242L63.7781 34.945L63.7995 34.9652L65.1716 33.51ZM67.4936 36.993L65.6339 37.7291L65.6339 37.7291L67.4936 36.993ZM54.2496 45.593L52.6088 46.7366L52.6287 46.7651L52.6496 46.793L54.2496 45.593ZM59.8396 45.55L58.1988 44.4064L58.1869 44.4234L58.1755 44.4406L59.8396 45.55ZM59.8396 37.595L58.1988 38.7386L58.2071 38.7505L58.2155 38.7623L59.8396 37.595ZM54.2496 37.595L55.8736 38.7623L55.8821 38.7505L55.8904 38.7386L54.2496 37.595ZM66.3106 41.551C66.3106 43.1246 66.0696 44.4643 65.6288 45.6009L69.3583 47.0471C70.0069 45.3744 70.3106 43.5321 70.3106 41.551H66.3106ZM65.6339 45.5879C65.1891 46.7117 64.5743 47.6213 63.7995 48.3518L66.5436 51.2622C67.7755 50.1007 68.7087 48.6883 69.3532 47.0601L65.6339 45.5879ZM63.7786 48.3718C63.0256 49.1027 62.1031 49.6732 60.9779 50.0717L62.3133 53.8423C63.94 53.2661 65.3682 52.4033 66.5645 51.2422L63.7786 48.3718ZM60.9779 50.0717C59.8473 50.4721 58.5438 50.688 57.0446 50.688V54.688C58.9279 54.688 60.6918 54.4165 62.3133 53.8423L60.9779 50.0717ZM57.0446 50.688C55.5574 50.688 54.2661 50.4615 53.1458 50.0413L51.7413 53.7867C53.373 54.3985 55.1491 54.688 57.0446 54.688V50.688ZM53.1458 50.0413C52.002 49.6124 51.0441 49.0178 50.2466 48.2658L47.5025 51.1762C48.7116 52.3162 50.1331 53.1836 51.7413 53.7867L53.1458 50.0413ZM50.2888 48.3068C49.5213 47.5393 48.9068 46.5998 48.4552 45.4589L44.7359 46.9311C45.3737 48.5422 46.2785 49.9534 47.4603 51.1352L50.2888 48.3068ZM48.4552 45.4589C48.017 44.352 47.7786 43.0593 47.7786 41.551H43.7786C43.7786 43.4827 44.0848 45.286 44.7359 46.9311L48.4552 45.4589ZM47.7786 41.551C47.7786 40.076 48.0155 38.7967 48.4552 37.6861L44.7359 36.2139C44.0862 37.8553 43.7786 39.6433 43.7786 41.551H47.7786ZM48.4552 37.6861C48.905 36.5497 49.5138 35.6337 50.2675 34.9022L47.4816 32.0318C46.286 33.1923 45.3754 34.5983 44.7359 36.2139L48.4552 37.6861ZM50.2681 34.9016C51.0637 34.1287 52.0147 33.5278 53.1458 33.1037L51.7413 29.3583C50.1204 29.9662 48.692 30.856 47.481 32.0324L50.2681 34.9016ZM53.1458 33.1037C54.2661 32.6835 55.5574 32.457 57.0446 32.457V28.457C55.1491 28.457 53.373 28.7465 51.7413 29.3583L53.1458 33.1037ZM57.0446 32.457C58.5195 32.457 59.7988 32.694 60.9095 33.1336L62.3817 29.4144C60.7403 28.7647 58.9522 28.457 57.0446 28.457V32.457ZM60.9433 33.1467C62.07 33.5692 62.9977 34.1646 63.7573 34.9242L66.5858 32.0958C65.3961 30.9061 63.9731 30.0108 62.3478 29.4013L60.9433 33.1467ZM63.7995 34.9652C64.5743 35.6957 65.1891 36.6053 65.6339 37.7291L69.3532 36.2569C68.7087 34.6287 67.7755 33.2163 66.5436 32.0548L63.7995 34.9652ZM65.6339 37.7291C66.0751 38.8436 66.3106 40.1094 66.3106 41.551H70.3106C70.3106 39.6673 70.0014 37.8944 69.3532 36.2569L65.6339 37.7291ZM51.2606 41.551C51.2606 43.5104 51.6233 45.3227 52.6088 46.7366L55.8904 44.4494C55.5571 43.9713 55.2606 43.089 55.2606 41.551H51.2606ZM52.6496 46.793C53.7368 48.2427 55.2908 48.969 57.0876 48.969V44.969C56.4763 44.969 56.1383 44.778 55.8496 44.393L52.6496 46.793ZM57.0876 48.969C58.9132 48.969 60.4767 48.1998 61.5037 46.6594L58.1755 44.4406C57.9411 44.7922 57.6699 44.969 57.0876 44.969V48.969ZM61.4804 46.6936C62.4626 45.2842 62.8286 43.49 62.8286 41.551H58.8286C58.8286 43.052 58.5351 43.9238 58.1988 44.4064L61.4804 46.6936ZM62.8286 41.551C62.8286 39.6179 62.465 37.821 61.4636 36.4277L58.2155 38.7623C58.5328 39.2037 58.8286 40.0441 58.8286 41.551H62.8286ZM61.4804 36.4514C60.4279 34.9413 58.8684 34.176 57.0446 34.176V38.176C57.6288 38.176 57.9326 38.3567 58.1988 38.7386L61.4804 36.4514ZM57.0446 34.176C55.2208 34.176 53.6613 34.9413 52.6088 36.4514L55.8904 38.7386C56.1565 38.3567 56.4604 38.176 57.0446 38.176V34.176ZM52.6255 36.4277C51.6241 37.821 51.2606 39.6179 51.2606 41.551H55.2606C55.2606 40.0441 55.5563 39.2037 55.8736 38.7623L52.6255 36.4277ZM79.1869 51.957L79.7616 53.8727L81.1869 53.4451V51.957H79.1869ZM77.8109 52.215L77.5406 50.2333L77.528 50.2351L77.8109 52.215ZM74.1989 52.215L73.8513 54.1846L73.8607 54.1862L73.8701 54.1878L74.1989 52.215ZM72.9519 51.699L74.1519 50.099L74.1519 50.099L72.9519 51.699ZM72.1349 50.667L70.2622 51.3692L70.2896 51.4422L70.3225 51.5128L72.1349 50.667ZM72.2209 34.327L70.4533 33.3912L70.4424 33.4118L70.432 33.4326L72.2209 34.327ZM73.2959 33.037L74.5571 34.5892L74.5571 34.5892L73.2959 33.037ZM74.9729 32.048L75.7703 33.8821L75.7883 33.8743L75.8062 33.8661L74.9729 32.048ZM77.1659 31.231L77.734 33.1486L77.734 33.1486L77.1659 31.231ZM79.5739 30.715L79.8471 32.6962L79.8805 32.6916L79.9137 32.6859L79.5739 30.715ZM85.3359 31.317L84.2129 32.972L84.2334 32.9859L84.2544 32.9994L85.3359 31.317ZM86.3679 35.101L88.2794 35.6892L88.2854 35.6699L88.2909 35.6504L86.3679 35.101ZM85.9379 36.133V38.133H87.1251L87.6937 37.0907L85.9379 36.133ZM84.0889 36.219L84.2699 38.2108L84.2699 38.2108L84.0889 36.219ZM82.2399 36.477L81.8656 34.5123L81.8656 34.5123L82.2399 36.477ZM80.5199 36.864L80.9537 38.8164L80.9915 38.808L81.0289 38.7981L80.5199 36.864ZM79.1869 37.294L78.3488 35.4781L77.1869 36.0143V37.294H79.1869ZM78.6122 50.0413C78.4842 50.0797 78.1563 50.1494 77.5406 50.2333L78.0811 54.1967C78.7268 54.1086 79.3162 54.0063 79.7616 53.8727L78.6122 50.0413ZM77.528 50.2351C77.0272 50.3067 76.4914 50.344 75.9189 50.344V54.344C76.665 54.344 77.3906 54.2953 78.0937 54.1949L77.528 50.2351ZM75.9189 50.344C75.3768 50.344 74.9156 50.3069 74.5277 50.2422L73.8701 54.1878C74.5141 54.2951 75.1996 54.344 75.9189 54.344V50.344ZM74.5464 50.2454C74.3215 50.2057 74.2092 50.142 74.1519 50.099L71.7519 53.299C72.3825 53.772 73.1015 54.0523 73.8513 54.1846L74.5464 50.2454ZM74.1519 50.099C74.0973 50.0581 74.0235 49.9848 73.9472 49.8212L70.3225 51.5128C70.6475 52.2092 71.1184 52.8239 71.7519 53.299L74.1519 50.099ZM74.0075 49.9648C73.9491 49.809 73.8769 49.4819 73.8769 48.904H69.8769C69.8769 49.7595 69.9766 50.6077 70.2622 51.3692L74.0075 49.9648ZM73.8769 48.904V36.004H69.8769V48.904H73.8769ZM73.8769 36.004C73.8769 35.5693 73.9531 35.3346 74.0097 35.2214L70.432 33.4326C70.0299 34.2367 69.8769 35.12 69.8769 36.004H73.8769ZM73.9884 35.2628C74.1119 35.0295 74.2917 34.8048 74.5571 34.5892L72.0347 31.4848C71.3827 32.0145 70.8458 32.6498 70.4533 33.3912L73.9884 35.2628ZM74.5571 34.5892C74.8481 34.3528 75.243 34.1114 75.7703 33.8821L74.1754 30.2139C73.384 30.5579 72.661 30.9759 72.0347 31.4848L74.5571 34.5892ZM75.8062 33.8661C76.4028 33.5927 77.0447 33.3528 77.734 33.1486L76.5977 29.3134C75.739 29.5678 74.9189 29.8726 74.1396 30.2299L75.8062 33.8661ZM77.734 33.1486C78.4078 32.949 79.1116 32.7977 79.8471 32.6962L79.3006 28.7338C78.3734 28.8616 77.472 29.0544 76.5977 29.3134L77.734 33.1486ZM79.9137 32.6859C80.6344 32.5617 81.3521 32.5 82.0679 32.5V28.5C81.121 28.5 80.176 28.5817 79.2341 28.7441L79.9137 32.6859ZM82.0679 32.5C83.2044 32.5 83.8535 32.7281 84.2129 32.972L86.4589 29.662C85.2129 28.8166 83.6834 28.5 82.0679 28.5V32.5ZM84.2544 32.9994C84.3327 33.0497 84.5399 33.1709 84.5399 33.897H88.5399C88.5399 32.2151 87.9443 30.6163 86.4174 29.6346L84.2544 32.9994ZM84.5399 33.897C84.5399 34.1052 84.5105 34.3217 84.4448 34.5516L88.2909 35.6504C88.4546 35.0776 88.5399 34.4915 88.5399 33.897H84.5399ZM84.4563 34.5128C84.3777 34.7682 84.2847 34.9871 84.1821 35.1753L87.6937 37.0907C87.935 36.6482 88.1287 36.1791 88.2794 35.6892L84.4563 34.5128ZM85.9379 34.133C85.2724 34.133 84.5956 34.1647 83.9078 34.2272L84.2699 38.2108C84.8435 38.1586 85.3993 38.133 85.9379 38.133V34.133ZM83.9078 34.2272C83.2145 34.2902 82.5336 34.3851 81.8656 34.5123L82.6141 38.4417C83.1501 38.3396 83.7019 38.2624 84.2699 38.2108L83.9078 34.2272ZM81.8656 34.5123C81.2223 34.6349 80.6038 34.7738 80.0109 34.9298L81.0289 38.7981C81.5253 38.6675 82.0535 38.5485 82.6141 38.4417L81.8656 34.5123ZM80.086 34.9116C79.4683 35.0489 78.8817 35.2321 78.3488 35.4781L80.025 39.1099C80.2374 39.0119 80.5394 38.9084 80.9537 38.8164L80.086 34.9116ZM77.1869 37.294V51.957H81.1869V37.294H77.1869ZM97.5536 46.41L96.4205 48.0581L96.4436 48.0739L96.4671 48.0891L97.5536 46.41ZM100.908 46.797L101.156 48.7816L101.216 48.774L101.276 48.7627L100.908 46.797ZM102.112 46.496L103.659 45.2295L102.787 44.1628L101.479 44.5986L102.112 46.496ZM102.757 47.571L100.918 48.3588L100.953 48.4407L100.996 48.5192L102.757 47.571ZM101.811 51.613L100.535 50.0722L100.522 50.0832L100.509 50.0945L101.811 51.613ZM91.6626 50.925L90.3663 52.4481L90.3742 52.4548L90.3822 52.4614L91.6626 50.925ZM89.6416 26.931L89.1153 25.0015L87.6416 25.4034V26.931H89.6416ZM90.9746 26.673L91.2713 28.6509L91.3102 28.645L91.3488 28.6377L90.9746 26.673ZM95.7906 27.189L94.6812 28.8531L94.7208 28.8795L94.7616 28.904L95.7906 27.189ZM96.8656 32.736H94.8656V34.736H96.8656V32.736ZM102.499 32.736L104.254 31.7783L103.686 30.736H102.499V32.736ZM102.972 33.94L101.053 34.5043L101.073 34.5741L101.099 34.6422L102.972 33.94ZM96.8656 38.326V36.326H94.8656V38.326H96.8656ZM94.8656 44.819C94.8656 45.9773 95.244 47.2492 96.4205 48.0581L98.6866 44.7619C98.7258 44.7888 98.7671 44.8257 98.804 44.871C98.8405 44.9159 98.8622 44.9562 98.8733 44.9819C98.8935 45.0287 98.8656 44.9945 98.8656 44.819H94.8656ZM96.4671 48.0891C97.3987 48.692 98.5036 48.883 99.5746 48.883V44.883C98.9256 44.883 98.6831 44.7587 98.6401 44.7309L96.4671 48.0891ZM99.5746 48.883C100.093 48.883 100.621 48.8484 101.156 48.7816L100.66 44.8124C100.277 44.8603 99.9157 44.883 99.5746 44.883V48.883ZM101.276 48.7627C101.8 48.6645 102.293 48.5436 102.744 48.3934L101.479 44.5986C101.242 44.6777 100.932 44.7575 100.539 44.8313L101.276 48.7627ZM100.564 47.7625C100.695 47.9226 100.815 48.1176 100.918 48.3588L104.595 46.7832C104.354 46.2218 104.044 45.7 103.659 45.2295L100.564 47.7625ZM100.996 48.5192C101.001 48.5287 101.058 48.6409 101.058 48.947H105.058C105.058 48.1637 104.914 47.3586 104.518 46.6228L100.996 48.5192ZM101.058 48.947C101.058 49.447 100.903 49.7683 100.535 50.0722L103.086 53.1538C104.381 52.0817 105.058 50.6257 105.058 48.947H101.058ZM100.509 50.0945C100.283 50.2878 99.4882 50.645 97.5106 50.645V54.645C99.661 54.645 101.732 54.3142 103.112 53.1315L100.509 50.0945ZM97.5106 50.645C95.2673 50.645 93.8373 50.1339 92.9429 49.3886L90.3822 52.4614C92.2398 54.0095 94.7086 54.645 97.5106 54.645V50.645ZM92.9588 49.4019C92.2321 48.7834 91.6416 47.6043 91.6416 45.335H87.6416C87.6416 48.2257 88.3984 50.7732 90.3663 52.4481L92.9588 49.4019ZM91.6416 45.335V26.931H87.6416V45.335H91.6416ZM90.1678 28.8605C90.3713 28.805 90.726 28.7327 91.2713 28.6509L90.6779 24.6951C90.0765 24.7853 89.5425 24.885 89.1153 25.0015L90.1678 28.8605ZM91.3488 28.6377C91.8185 28.5482 92.3234 28.501 92.8666 28.501V24.501C92.0911 24.501 91.3346 24.5685 90.6004 24.7083L91.3488 28.6377ZM92.8666 28.501C93.9264 28.501 94.4523 28.7005 94.6812 28.8531L96.9 25.5249C95.7528 24.7601 94.3294 24.501 92.8666 24.501V28.501ZM94.7616 28.904C94.6668 28.8471 94.6789 28.7951 94.7301 28.9282C94.7917 29.0884 94.8656 29.4147 94.8656 29.984H98.8656C98.8656 28.3592 98.4754 26.4675 96.8196 25.474L94.7616 28.904ZM94.8656 29.984V32.736H98.8656V29.984H94.8656ZM96.8656 34.736H102.499V30.736H96.8656V34.736ZM100.743 33.6937C100.825 33.8446 100.935 34.1022 101.053 34.5043L104.89 33.3757C104.722 32.8031 104.516 32.2581 104.254 31.7783L100.743 33.6937ZM101.099 34.6422C101.174 34.8416 101.23 35.1144 101.23 35.488H105.23C105.23 34.7149 105.113 33.9557 104.844 33.2378L101.099 34.6422ZM101.23 35.488C101.23 35.8457 101.188 36.0676 101.149 36.1901C101.114 36.3035 101.091 36.3034 101.127 36.2668L103.956 39.0952C104.951 38.1001 105.23 36.7387 105.23 35.488H101.23ZM101.127 36.2668C101.124 36.27 101.12 36.276 101.091 36.2865C101.055 36.2997 100.96 36.326 100.779 36.326V40.326C101.927 40.326 103.069 39.9816 103.956 39.0952L101.127 36.2668ZM100.779 36.326H96.8656V40.326H100.779V36.326ZM94.8656 38.326V44.819H98.8656V38.326H94.8656Z" fill="white"/>
</svg>
